{"glyphs":{"0":{"ha":617,"x_min":8,"x_max":617,"o":"m 246 67 q 313 101 281 67 q 374 190 346 135 q 424 315 401 244 q 462 457 447 385 q 482 599 476 529 q 482 721 488 668 q 460 794 478 768 q 418 825 443 819 q 365 817 393 831 q 308 771 336 803 q 239 656 271 725 q 186 508 207 586 q 156 351 165 429 q 153 209 147 272 q 181 106 158 146 q 246 67 203 67 m 231 849 q 292 888 258 872 q 361 903 325 903 q 510 856 446 903 q 597 733 575 808 q 616 592 615 671 q 601 431 617 513 q 555 270 586 349 q 478 131 524 192 q 374 32 433 69 q 244 -6 315 -6 q 102 44 154 -6 q 29 173 50 94 q 15 349 8 251 q 51 541 22 446 q 126 718 79 636 q 231 849 172 800 z "},"1":{"ha":314,"x_min":74,"x_max":397,"o":"m 78 61 q 86 186 78 113 q 108 341 94 260 q 141 506 122 422 q 179 663 160 589 q 157 651 164 651 q 133 663 147 651 q 104 692 118 675 q 82 725 90 708 q 78 750 74 742 q 82 756 78 753 q 181 817 131 781 q 265 896 231 854 q 301 892 279 896 q 345 880 324 888 q 382 862 367 872 q 397 839 397 851 q 394 832 397 835 q 385 820 389 825 q 376 808 381 815 q 333 708 356 771 q 290 567 311 644 q 251 407 269 490 q 217 248 232 324 q 194 111 203 172 q 186 17 186 50 q 169 0 186 0 q 141 6 157 0 q 111 19 125 11 q 88 39 97 28 q 78 61 78 50 z "},"2":{"ha":517,"x_min":-42,"x_max":544,"o":"m 358 14 q 176 22 272 22 q -3 -8 81 21 q -30 -10 -18 -15 q -42 11 -42 -6 q -30 65 -42 39 q 3 108 -18 90 q 142 240 71 167 q 271 394 213 313 q 366 559 329 475 q 403 724 403 643 q 381 788 403 765 q 326 811 358 811 q 274 792 299 811 q 230 747 249 774 q 200 689 211 719 q 189 633 189 658 q 179 625 189 625 q 157 629 171 625 q 130 641 143 633 q 108 659 117 649 q 99 682 99 669 q 122 761 99 722 q 183 831 146 800 q 266 880 221 861 q 353 899 311 899 q 429 886 394 899 q 490 850 464 874 q 530 793 515 826 q 544 719 544 760 q 510 554 544 638 q 418 393 475 471 q 288 244 361 315 q 139 117 215 174 q 282 128 210 128 q 419 119 354 129 q 440 107 432 117 q 453 83 449 97 q 460 53 458 68 q 461 25 461 38 q 460 10 461 21 q 451 0 458 0 l 447 0 q 403 8 426 6 q 358 14 381 11 z "},"3":{"ha":529,"x_min":-11,"x_max":532,"o":"m 225 439 q 191 434 208 436 q 163 432 174 432 q 143 444 147 432 q 142 470 139 456 q 153 497 144 485 q 174 510 163 510 q 197 509 186 510 q 219 506 207 508 q 289 541 257 514 q 344 602 321 568 q 379 674 367 636 q 391 743 392 711 q 376 795 390 775 q 329 815 361 815 q 280 795 304 815 q 235 747 256 775 q 203 687 215 718 q 192 633 192 656 q 182 625 192 625 q 160 629 174 625 q 133 641 146 633 q 110 659 119 649 q 101 682 101 669 q 127 761 101 722 q 192 831 153 800 q 278 880 232 861 q 368 899 325 899 q 465 874 428 899 q 517 810 501 849 q 527 722 532 771 q 498 626 522 674 q 431 537 474 578 q 329 471 389 496 q 424 403 392 447 q 463 305 456 358 q 453 196 469 251 q 401 94 436 140 q 313 19 365 49 q 194 -10 260 -10 q 108 6 147 -10 q 41 49 68 22 q 1 113 14 76 q -3 190 -11 149 q 17 256 6 229 q 38 283 28 283 q 67 281 47 283 q 107 275 88 279 q 142 265 126 271 q 158 251 157 260 q 157 243 158 246 q 138 195 146 226 q 129 134 129 164 q 141 82 129 104 q 185 60 153 60 q 222 68 204 60 q 254 92 239 76 q 305 176 286 124 q 323 283 324 229 q 299 380 322 336 q 225 439 276 424 z "},"4":{"ha":490,"x_min":-28,"x_max":546,"o":"m 226 61 q 231 150 226 100 q 244 258 236 200 q 136 256 192 260 q 29 236 81 253 q 11 232 18 232 q -8 241 0 232 q -19 262 -15 250 q -26 285 -24 274 q -28 304 -28 297 q 196 586 85 443 q 393 888 307 729 q 408 896 399 896 q 475 885 440 896 q 535 853 510 874 q 546 839 546 846 q 543 832 546 835 q 533 820 538 825 q 525 808 529 815 q 491 731 508 779 q 456 624 474 683 q 422 500 439 565 q 390 369 404 435 q 428 353 421 363 q 440 325 433 346 q 451 283 447 304 q 454 248 456 263 q 440 238 453 233 q 406 245 425 242 q 367 251 388 249 q 343 113 351 175 q 335 17 335 50 q 318 0 335 0 q 290 6 306 0 q 260 19 274 11 q 236 39 246 28 q 226 61 226 50 m 344 713 q 217 524 281 613 q 83 350 154 435 q 173 365 128 360 q 263 372 218 369 q 344 713 299 561 z "},"5":{"ha":536,"x_min":-4,"x_max":578,"o":"m 301 790 q 256 645 274 719 q 217 499 239 571 q 264 535 238 519 q 317 550 290 550 q 367 535 336 550 q 426 497 397 519 q 475 449 454 475 q 496 403 496 424 q 492 335 496 369 q 482 267 489 301 q 440 153 468 204 q 374 65 413 101 q 288 10 335 29 q 192 -10 242 -10 q 106 6 144 -10 q 42 49 68 22 q 6 113 17 76 q 4 190 -4 149 q 22 256 11 229 q 44 283 33 283 q 74 281 54 283 q 113 275 93 279 q 147 265 132 271 q 164 251 163 260 q 163 243 165 249 q 144 193 150 219 q 138 148 140 172 q 140 104 136 124 q 155 72 143 85 q 190 58 167 58 q 244 78 219 58 q 286 129 268 99 q 317 197 304 160 q 339 267 331 233 q 353 347 347 308 q 357 417 358 386 q 344 466 356 447 q 311 485 333 485 q 241 451 272 485 q 188 367 210 418 q 165 351 183 351 q 135 356 151 351 q 103 369 118 361 q 74 389 88 378 q 56 413 61 400 q 52 423 53 419 q 54 435 51 426 q 97 600 76 517 q 144 764 117 683 q 135 787 139 772 q 130 816 131 801 q 132 842 129 831 q 143 857 135 854 q 242 883 188 874 q 351 897 296 893 q 456 898 406 900 q 544 888 507 896 q 574 849 569 883 q 576 819 575 835 q 577 791 578 804 q 575 769 576 778 q 569 758 574 760 q 564 760 567 756 q 553 765 558 763 q 543 768 549 767 q 425 788 481 781 q 301 790 369 794 z "},"6":{"ha":506,"x_min":-14,"x_max":547,"o":"m 172 57 q 227 90 200 58 q 276 169 254 122 q 313 272 299 217 q 331 375 328 328 q 324 453 335 422 q 283 485 313 485 q 219 453 249 485 q 169 375 190 422 q 134 272 147 328 q 120 169 121 217 q 131 90 119 122 q 172 57 143 58 m 290 550 q 340 535 310 550 q 398 497 369 519 q 447 449 426 475 q 468 403 468 424 q 453 261 468 335 q 403 127 438 188 q 312 28 368 67 q 172 -11 256 -11 q 63 21 103 -11 q 4 102 22 53 q -13 209 -14 151 q -1 318 -12 267 q 151 756 61 604 q 358 907 240 907 q 424 895 390 907 q 485 865 457 883 q 530 822 513 846 q 547 774 547 799 q 522 663 547 718 q 447 579 497 607 q 425 574 438 574 q 392 585 410 574 q 360 610 375 596 q 338 641 346 625 q 333 667 329 657 q 338 672 335 671 q 344 674 342 672 q 381 686 361 679 q 417 704 400 693 q 444 731 433 715 q 454 768 454 747 q 434 815 454 799 q 390 832 414 832 q 338 806 364 832 q 289 737 313 781 q 243 635 265 693 q 200 511 221 576 q 242 539 219 528 q 290 550 265 550 z "},"7":{"ha":496,"x_min":42,"x_max":593,"o":"m 75 76 q 137 261 99 168 q 222 444 175 354 q 322 620 269 535 q 426 785 374 706 q 115 711 271 775 q 92 697 101 706 q 85 694 86 694 q 69 711 76 696 q 55 747 61 726 q 45 787 49 767 q 43 817 42 807 q 101 849 46 833 q 215 874 160 864 q 323 891 269 885 q 431 899 376 897 q 547 896 486 900 q 570 875 558 894 q 589 835 582 856 q 591 808 593 819 q 575 781 589 796 q 480 656 526 726 q 390 504 433 585 q 309 340 347 424 q 239 175 271 256 q 223 130 231 154 q 209 83 215 106 q 199 40 203 60 q 196 8 196 21 q 188 -1 196 1 q 172 -4 179 -4 q 119 6 149 -4 q 74 29 89 15 q 75 76 64 40 z "},"8":{"ha":522,"x_min":-33,"x_max":567,"o":"m 115 117 q 139 72 122 86 q 175 58 156 58 q 228 74 204 58 q 271 113 253 89 q 301 164 289 136 q 318 215 313 192 q 307 330 333 288 q 238 401 281 372 q 180 350 206 383 q 138 277 154 317 q 115 196 121 238 q 115 117 108 154 m 176 -10 q 85 9 126 -10 q 16 61 43 28 q -22 139 -11 94 q -22 233 -33 183 q 35 362 -8 300 q 143 460 79 424 q 113 496 126 475 q 90 544 99 517 q 81 607 82 571 q 92 690 81 643 q 122 776 101 736 q 172 844 142 815 q 244 890 203 874 q 338 907 285 907 q 452 889 406 907 q 524 841 499 871 q 558 772 550 811 q 561 690 567 733 q 531 610 551 646 q 485 545 511 574 q 428 494 458 517 q 372 454 399 472 q 447 365 425 415 q 467 263 469 315 q 442 161 465 211 q 379 72 418 111 q 287 11 339 32 q 176 -10 235 -10 m 276 781 q 242 719 256 753 q 228 651 229 685 q 238 583 226 617 q 276 524 249 550 q 341 564 311 539 q 391 620 371 589 q 420 688 411 651 q 421 763 429 724 q 396 812 414 796 q 356 828 378 828 q 311 814 332 828 q 276 781 290 800 z "},"9":{"ha":535,"x_min":-17,"x_max":550,"o":"m 357 839 q 302 806 329 838 q 253 726 275 774 q 218 624 232 679 q 201 521 204 568 q 208 442 197 474 q 246 411 218 411 q 276 417 260 411 q 308 431 293 422 q 336 451 324 440 q 356 474 349 463 q 401 581 385 518 q 418 700 417 643 q 404 797 419 757 q 357 839 389 838 m 350 385 q 260 347 311 356 q 160 363 208 339 q 89 435 113 386 q 64 545 65 485 q 81 670 63 606 q 138 787 100 735 q 230 873 175 839 q 356 907 285 907 q 475 869 433 907 q 533 773 517 832 q 547 642 550 714 q 531 499 544 569 q 499 369 517 429 q 468 274 481 308 q 426 175 450 225 q 367 83 401 125 q 287 15 332 42 q 182 -11 242 -11 q 80 13 122 -11 q 14 75 38 36 q -13 162 -10 114 q 0 258 -17 210 q 19 288 8 288 q 49 285 29 288 q 88 279 68 283 q 122 269 107 275 q 139 256 138 264 q 138 249 140 253 q 119 197 125 224 q 117 165 117 186 q 124 122 118 143 q 141 85 129 101 q 172 69 153 69 q 237 110 207 69 q 290 205 267 151 q 328 310 313 258 q 350 385 343 363 z "},"\u0000":{"ha":0,"x_min":0,"x_max":0,"o":""},"\r":{"ha":222,"x_min":0,"x_max":0,"o":""}," ":{"ha":222,"x_min":0,"x_max":0,"o":""},"!":{"ha":235,"x_min":-29,"x_max":318,"o":"m 297 808 q 206 551 244 688 q 139 285 167 414 q 131 236 133 254 q 126 224 131 226 q 113 222 122 222 q 84 228 100 222 q 53 245 68 235 q 29 269 39 256 q 22 299 19 283 q 46 430 33 365 q 74 560 58 494 q 107 689 90 628 q 140 796 124 750 q 172 869 157 842 q 197 896 186 896 q 228 890 207 896 q 268 875 249 883 q 303 857 288 867 q 318 839 318 847 q 315 832 318 835 q 305 820 310 825 q 297 808 300 815 m 118 93 q 113 68 118 85 q 95 36 107 51 q 66 10 83 21 q 25 -1 49 -1 q -19 26 -8 0 q -25 82 -29 51 q -6 138 -21 113 q 28 163 10 163 q 93 144 68 161 q 118 93 118 128 z "},"\"":{"ha":354,"x_min":135,"x_max":424,"o":"m 407 896 q 423 860 424 879 q 417 819 422 840 q 363 715 401 744 q 281 685 325 685 q 278 693 267 685 q 303 718 290 704 q 324 750 317 732 q 321 758 326 758 q 292 776 301 763 q 281 807 283 789 q 226 712 263 739 q 146 685 189 685 q 143 693 135 685 q 169 718 157 704 q 189 750 182 732 q 186 758 194 758 q 150 790 158 764 q 147 846 142 817 q 167 898 153 875 q 200 921 182 921 q 274 896 250 921 q 288 869 285 883 q 307 907 294 892 q 335 921 319 922 q 407 896 383 921 z "},"#":{"ha":861,"x_min":0,"x_max":819,"o":"m 454 61 q 458 142 454 97 q 469 239 463 186 q 371 233 419 236 q 271 226 322 229 q 251 103 258 157 q 244 17 244 49 q 226 0 244 0 q 198 6 214 0 q 169 19 182 11 q 146 39 156 28 q 136 61 136 50 q 139 133 136 93 q 147 217 142 172 q 64 213 107 214 q 35 217 49 211 q 14 246 22 222 q 6 277 10 261 q 1 307 3 293 q 14 319 0 325 q 43 313 25 314 q 79 314 61 313 q 163 318 122 315 q 178 410 169 364 q 199 503 188 457 q 160 501 179 501 q 122 499 142 500 q 94 503 107 499 q 72 532 81 508 q 60 594 63 563 q 63 607 58 606 q 72 606 67 608 q 101 599 83 600 q 136 600 119 599 q 181 602 160 601 q 222 606 201 603 q 236 660 229 633 q 250 711 243 688 l 251 717 q 284 806 269 772 q 311 839 299 839 q 342 833 321 839 q 383 818 363 826 q 418 799 403 810 q 433 781 433 789 q 429 774 433 778 q 424 767 426 771 q 419 761 422 764 q 402 731 408 747 q 389 699 396 715 q 376 658 382 679 q 363 614 369 638 q 453 620 408 618 q 546 625 497 622 q 557 670 551 649 q 569 711 563 692 l 571 717 q 603 806 589 772 q 629 839 617 839 q 660 833 639 839 q 701 818 681 826 q 736 799 721 810 q 751 781 751 789 q 749 774 751 779 q 738 761 740 765 q 720 731 726 747 q 708 699 714 715 q 696 663 701 682 q 685 625 690 644 q 726 625 704 625 q 771 624 747 625 q 791 615 782 624 q 807 593 800 606 q 817 566 814 581 q 818 539 819 551 q 801 525 817 524 q 657 529 724 529 q 613 339 632 433 q 660 338 636 339 q 713 336 685 338 q 733 328 724 336 q 749 307 742 319 q 759 280 756 294 q 761 253 763 265 q 743 238 760 238 q 665 241 703 240 q 592 242 628 242 q 570 108 578 168 q 563 17 563 49 q 546 0 563 0 q 517 6 533 0 q 488 19 501 11 q 464 39 474 28 q 454 61 454 50 m 522 525 q 429 519 475 522 q 335 513 383 517 q 313 420 324 467 q 292 328 301 374 q 388 333 340 331 q 485 338 435 336 q 501 432 492 385 q 522 525 511 479 z "},"$":{"ha":547,"x_min":-4,"x_max":529,"o":"m 383 732 q 325 722 356 732 q 269 694 294 713 q 228 651 244 676 q 211 593 211 625 q 231 525 211 553 q 280 475 250 497 q 344 432 310 453 q 408 386 378 411 q 458 328 438 361 q 478 250 478 296 q 455 154 478 197 q 394 79 432 111 q 309 28 357 47 q 211 3 261 8 q 201 -50 204 -26 q 194 -89 197 -74 q 189 -101 192 -97 q 175 -101 186 -104 q 136 -80 149 -99 q 126 -37 124 -61 q 131 -17 128 -28 q 136 4 133 -7 q 53 40 85 13 q 8 104 21 67 q 3 184 -4 142 q 39 264 11 226 q 70 298 50 279 q 111 317 90 317 q 138 310 124 317 q 164 292 151 303 q 185 269 176 282 q 197 247 194 257 q 199 235 199 242 q 192 229 199 229 q 143 216 168 229 q 103 181 118 203 q 86 135 85 156 q 101 101 88 115 q 135 78 114 86 q 178 69 156 69 q 240 81 210 69 q 295 114 271 93 q 335 164 319 135 q 350 226 350 193 q 331 287 350 263 q 282 332 311 311 q 219 373 253 353 q 157 419 186 393 q 108 483 128 446 q 89 572 89 519 q 108 659 89 619 q 160 728 128 699 q 235 775 193 757 q 321 799 276 793 q 349 877 332 843 q 378 911 367 911 q 406 906 390 911 q 435 892 422 900 q 458 873 449 883 q 467 854 467 863 q 464 847 467 853 q 443 819 453 835 q 425 789 433 804 q 501 733 474 772 q 514 633 529 693 q 499 583 507 607 q 475 538 490 558 q 445 503 464 522 q 407 485 426 485 q 378 494 393 485 q 350 517 363 504 q 331 544 338 531 q 326 567 324 558 q 331 572 326 569 q 387 608 358 589 q 429 654 415 626 q 430 709 444 686 q 383 732 415 732 z "},"%":{"ha":842,"x_min":107,"x_max":790,"o":"m 228 83 q 283 233 246 146 q 368 413 321 319 q 466 598 415 507 q 563 758 517 689 q 500 742 532 747 q 436 740 468 738 q 418 663 433 701 q 377 592 403 624 q 317 542 351 561 q 243 522 282 522 q 153 554 183 522 q 115 633 124 586 q 115 733 107 681 q 140 825 124 785 q 155 851 147 842 q 169 860 163 860 q 192 858 178 861 q 222 849 207 854 q 247 836 236 843 q 258 824 258 829 q 257 818 258 819 q 251 808 254 813 q 244 799 247 804 q 222 740 233 779 q 207 663 211 701 q 209 597 203 625 q 239 568 215 568 q 274 588 257 568 q 303 638 290 607 q 323 703 315 668 q 331 769 331 738 q 294 797 311 782 q 269 831 278 811 q 272 849 267 836 q 288 872 278 861 q 312 890 299 883 q 338 894 325 897 q 403 853 381 883 q 433 782 426 822 q 527 791 479 778 q 614 832 575 804 q 656 882 638 864 q 686 900 675 900 q 710 891 697 900 q 735 869 724 882 q 756 841 747 856 q 764 815 764 826 q 758 807 764 810 q 746 798 751 801 q 733 788 740 794 q 658 695 700 756 q 570 560 615 635 q 480 404 525 486 q 397 247 435 322 q 331 110 358 172 q 293 14 303 49 q 281 0 289 0 q 254 8 265 0 q 236 29 243 17 q 227 56 229 42 q 228 83 225 71 m 593 40 q 628 61 613 40 q 656 114 644 82 q 673 183 667 146 q 680 251 679 219 q 674 304 681 283 q 651 325 667 325 q 613 304 629 325 q 584 251 596 283 q 567 183 572 219 q 562 114 561 146 q 570 61 563 82 q 593 40 578 40 m 633 374 q 730 346 694 374 q 778 276 765 318 q 783 184 790 233 q 750 92 775 135 q 686 22 725 50 q 597 -6 647 -6 q 510 22 543 -6 q 465 92 478 50 q 457 184 451 135 q 485 276 463 233 q 544 346 507 318 q 633 374 582 374 z "},"&":{"ha":685,"x_min":-4,"x_max":629,"o":"m 372 901 q 448 890 411 901 q 513 860 485 879 q 557 812 540 840 q 574 749 574 783 q 546 656 574 699 q 476 575 518 613 q 386 506 435 538 q 296 447 338 474 l 297 446 q 363 332 324 392 q 451 217 403 272 q 501 274 479 244 q 533 328 522 303 q 542 334 536 335 q 550 329 547 333 q 578 290 564 314 q 600 244 593 267 q 603 219 604 231 q 596 197 603 208 q 567 164 585 181 q 531 132 550 147 q 578 90 554 110 q 625 56 601 71 q 628 51 626 53 q 629 49 629 50 q 617 21 629 36 q 590 -8 606 6 q 556 -30 574 -21 q 528 -39 539 -39 q 478 -15 513 -39 q 408 46 443 10 q 254 -4 339 -4 q 122 22 175 -4 q 40 88 69 47 q 3 180 10 128 q 9 283 -4 232 q 56 383 22 335 q 142 464 90 431 q 111 575 121 517 q 113 692 101 633 q 147 776 122 738 q 206 842 171 814 q 283 885 240 869 q 372 901 325 901 m 342 122 q 258 240 297 179 q 185 367 218 301 q 146 286 157 333 q 142 197 135 239 q 178 124 150 154 q 258 94 206 94 q 342 122 306 94 m 260 544 q 326 597 294 569 q 383 653 358 624 q 422 714 407 682 q 436 779 436 746 q 426 817 436 803 q 399 835 415 831 q 365 837 383 840 q 331 822 347 833 q 296 789 311 810 q 269 744 281 768 q 252 694 258 719 q 246 646 246 668 q 249 595 246 621 q 260 544 253 569 z "},"'":{"ha":221,"x_min":135,"x_max":290,"o":"m 274 896 q 289 860 290 879 q 283 819 288 840 q 228 715 267 744 q 146 685 190 685 q 143 693 135 685 q 169 718 157 704 q 189 750 182 732 q 186 758 194 758 q 150 790 158 764 q 147 846 142 817 q 167 898 153 875 q 200 921 182 921 q 274 896 250 921 z "},"(":{"ha":294,"x_min":11,"x_max":350,"o":"m 33 54 q 15 261 11 150 q 44 482 18 372 q 116 692 69 592 q 228 869 163 793 q 255 895 242 886 q 275 904 268 904 q 301 899 288 904 q 325 885 314 893 q 343 867 336 876 q 350 849 350 857 q 340 835 350 842 q 319 815 331 829 q 215 642 261 743 q 141 431 168 542 q 110 210 114 321 q 135 10 107 100 q 124 -8 139 -8 q 68 10 96 -8 q 33 54 40 29 z "},")":{"ha":322,"x_min":-28,"x_max":311,"o":"m 289 842 q 308 635 311 746 q 278 414 304 524 q 206 203 253 304 q 94 26 158 103 q 67 1 79 10 q 47 -8 54 -8 q 22 -3 35 -8 q -3 11 8 3 q -21 29 -14 19 q -28 47 -28 39 q -18 60 -28 54 q 3 81 -8 67 q 108 253 61 153 q 181 465 154 354 q 212 685 208 575 q 188 886 215 796 q 199 904 183 904 q 253 885 225 904 q 289 842 281 867 z "},"*":{"ha":274,"x_min":139,"x_max":329,"o":"m 279 872 q 294 879 286 876 q 308 875 301 882 q 319 867 314 871 q 326 857 324 863 q 324 850 329 853 q 294 838 308 847 q 267 819 279 828 q 294 802 281 810 q 322 788 307 794 q 328 778 329 783 q 312 762 324 768 q 289 763 300 756 q 270 774 279 768 q 250 786 261 779 q 250 760 250 771 q 251 735 250 750 q 246 726 251 726 q 225 731 236 724 q 214 750 214 739 l 214 783 q 196 772 204 776 q 179 763 188 768 q 156 762 168 756 q 140 778 144 768 q 146 788 139 783 q 174 802 161 794 q 201 819 188 810 q 175 837 189 828 q 146 850 161 846 q 143 857 139 853 q 160 875 149 867 q 175 878 168 881 q 189 872 182 876 q 202 863 196 867 q 215 854 208 860 q 217 867 217 861 q 217 879 217 872 q 217 894 217 889 q 215 907 217 900 q 219 914 213 914 q 245 908 235 914 q 256 886 256 901 q 255 871 256 879 q 254 856 254 863 q 267 864 261 860 q 279 872 272 868 z "},"+":{"ha":472,"x_min":42,"x_max":431,"o":"m 106 393 q 77 397 90 392 q 56 426 64 403 q 48 457 51 442 q 43 488 44 472 q 46 500 42 499 q 56 499 50 501 q 85 493 67 493 q 121 494 103 493 q 156 495 139 494 q 193 497 174 496 q 199 526 196 513 q 206 553 203 539 q 223 617 215 593 q 242 640 231 640 q 269 637 254 640 q 296 628 283 633 q 317 614 308 622 q 328 597 326 606 q 326 590 328 593 q 308 547 315 568 q 294 503 300 526 l 382 503 q 401 494 392 503 q 417 472 411 485 q 427 445 424 460 q 429 418 431 431 q 411 404 428 403 q 340 406 375 406 q 269 403 306 406 q 256 338 263 371 q 246 271 249 304 q 243 258 246 263 q 229 256 240 254 q 182 276 203 257 q 163 319 161 296 q 167 358 164 339 q 172 397 169 378 l 106 393 z "},",":{"ha":193,"x_min":-26,"x_max":124,"o":"m 107 138 q 122 101 124 121 q 117 60 121 81 q 62 -45 100 -15 q -21 -75 24 -75 q -26 -72 -26 -75 q -24 -65 -26 -68 q 3 -40 -10 -54 q 22 -10 15 -26 q 19 0 26 -1 q -17 32 -8 6 q -19 88 -25 58 q 1 140 -14 117 q 33 163 15 163 q 107 138 85 160 z "},"-":{"ha":472,"x_min":42,"x_max":431,"o":"m 106 393 q 77 397 90 392 q 56 426 64 403 q 48 458 51 442 q 43 488 44 474 q 46 500 42 499 q 56 499 50 501 q 85 494 67 494 q 121 494 103 493 q 252 501 185 497 q 382 503 319 506 q 401 494 392 503 q 417 472 411 485 q 427 445 424 460 q 429 418 431 431 q 411 404 428 403 q 258 403 335 408 q 106 393 182 397 z "},".":{"ha":188,"x_min":-29,"x_max":118,"o":"m 118 93 q 113 68 118 85 q 95 36 107 51 q 66 10 83 21 q 25 -1 49 -1 q -19 26 -8 0 q -25 82 -29 51 q -6 138 -21 113 q 28 163 10 163 q 93 144 68 161 q 118 93 118 128 z "},"/":{"ha":440,"x_min":-29,"x_max":510,"o":"m -25 83 q 28 228 -8 144 q 109 402 64 311 q 203 582 154 493 q 298 742 253 671 q 378 856 343 813 q 432 900 414 900 q 456 891 443 900 q 481 869 469 882 q 501 841 493 856 q 510 815 510 826 q 504 807 510 810 q 492 798 497 801 q 479 788 486 794 q 405 695 447 756 q 317 560 363 635 q 226 404 271 486 q 142 247 181 322 q 76 110 104 172 q 39 14 49 49 q 26 0 38 0 q 0 8 11 0 q -18 29 -11 17 q -27 56 -25 42 q -25 83 -29 71 z "},":":{"ha":228,"x_min":-29,"x_max":186,"o":"m 118 93 q 113 68 118 85 q 95 36 107 51 q 66 10 83 21 q 25 -1 49 -1 q -19 26 -8 0 q -25 82 -29 51 q -6 138 -21 113 q 28 163 10 163 q 93 144 68 161 q 118 93 118 128 m 186 415 q 181 391 186 407 q 163 359 175 375 q 134 332 151 343 q 93 322 117 321 q 49 349 60 324 q 43 406 39 375 q 63 461 47 436 q 96 486 78 486 q 161 467 136 485 q 186 415 186 450 z "},";":{"ha":233,"x_min":-26,"x_max":192,"o":"m 107 138 q 122 101 124 121 q 117 60 121 81 q 96 6 110 31 q 63 -37 82 -19 q 22 -65 43 -54 q -21 -75 0 -75 q -26 -72 -26 -75 q -24 -65 -26 -68 q 3 -40 -10 -54 q 22 -10 15 -26 q 19 0 26 -1 q -17 32 -8 6 q -19 88 -25 58 q 1 140 -14 117 q 33 163 15 163 q 107 138 85 160 m 192 415 q 185 391 192 407 q 168 359 179 375 q 140 332 157 343 q 97 322 122 321 q 53 349 64 324 q 47 406 43 375 q 67 461 51 436 q 101 486 82 486 q 166 467 142 485 q 192 415 190 450 z "},"<":{"ha":483,"x_min":42,"x_max":443,"o":"m 364 394 q 390 379 379 389 q 397 344 400 369 q 386 283 397 313 q 379 273 383 272 q 371 276 375 274 q 318 309 356 293 q 236 341 281 325 q 146 372 192 357 q 68 401 100 388 q 49 424 56 407 q 42 461 42 442 q 50 502 42 482 q 67 531 58 522 q 213 568 140 542 q 357 619 286 594 q 386 622 372 625 q 414 597 400 619 q 440 540 432 571 q 440 528 443 531 q 431 528 436 526 q 401 526 418 531 q 367 518 383 522 q 258 487 318 504 q 149 458 197 469 q 257 426 199 439 q 364 394 315 413 z "},"=":{"ha":506,"x_min":42,"x_max":464,"o":"m 139 492 q 110 496 124 490 q 89 525 97 501 q 81 556 83 540 q 76 586 78 571 q 79 599 75 597 q 89 597 83 600 q 118 592 100 592 q 153 592 136 592 q 285 599 218 596 q 414 600 353 603 q 435 592 425 600 q 451 571 444 583 q 460 544 457 558 q 463 517 464 529 q 444 501 461 501 q 292 501 368 507 q 139 492 215 494 m 106 294 q 77 299 90 293 q 56 328 64 304 q 48 359 51 343 q 43 390 44 375 q 56 401 42 407 q 85 395 67 396 q 121 396 103 394 q 252 403 185 399 q 382 404 319 407 q 401 396 392 404 q 417 375 411 388 q 427 348 424 363 q 429 321 431 333 q 411 306 428 306 q 258 304 335 310 q 106 294 182 299 z "},">":{"ha":483,"x_min":40,"x_max":442,"o":"m 118 501 q 94 517 104 507 q 85 551 83 526 q 96 614 88 585 q 103 623 99 624 q 111 619 108 622 q 165 587 128 603 q 247 555 201 571 q 337 524 292 539 q 415 494 382 508 q 435 472 428 489 q 442 436 442 454 q 433 394 442 414 q 415 365 425 375 q 269 328 342 354 q 125 276 197 301 q 97 274 111 272 q 69 299 83 276 q 43 356 51 328 q 44 367 40 365 q 53 369 47 369 q 83 370 65 367 q 117 378 100 374 q 224 409 164 392 q 333 438 285 426 q 226 471 285 457 q 118 501 167 485 z "},"?":{"ha":508,"x_min":75,"x_max":522,"o":"m 222 93 q 217 68 222 85 q 199 36 211 51 q 170 10 188 21 q 129 -1 153 -1 q 85 26 96 0 q 79 82 75 51 q 99 138 83 113 q 132 163 114 163 q 197 144 172 161 q 222 93 222 128 m 126 292 q 156 381 135 342 q 206 454 178 421 q 265 517 235 488 q 322 578 296 547 q 364 643 347 608 q 381 721 381 678 q 362 786 381 763 q 311 810 343 810 q 264 792 286 810 q 225 748 242 775 q 199 690 208 721 q 189 632 189 658 q 179 624 189 624 q 157 628 171 624 q 130 640 143 632 q 108 658 117 647 q 99 681 99 668 q 118 765 99 726 q 170 833 138 804 q 245 879 203 863 q 332 896 288 896 q 468 848 414 896 q 522 718 522 800 q 503 624 522 665 q 453 548 483 583 q 387 480 422 513 q 319 410 351 447 q 264 330 288 374 q 235 229 240 286 q 217 214 235 214 q 188 220 204 214 q 158 237 172 226 q 133 262 143 247 q 126 292 124 276 z "},"@":{"ha":867,"x_min":-6,"x_max":839,"o":"m 347 65 q 424 78 386 65 q 489 115 461 92 q 500 110 496 119 q 500 98 503 106 q 494 83 497 90 q 419 19 467 39 q 318 -1 371 -1 q 153 37 219 -1 q 50 137 88 75 q 3 278 13 199 q 11 441 -6 358 q 69 603 28 524 q 173 745 110 683 q 320 845 236 807 q 507 883 404 883 q 651 857 582 883 q 768 772 719 831 q 821 672 804 728 q 838 555 838 615 q 824 433 839 494 q 781 320 808 372 q 716 227 754 268 q 632 165 678 186 q 594 151 613 156 q 553 146 575 146 q 524 156 540 146 q 495 182 508 167 q 474 213 482 197 q 467 240 465 229 l 475 303 q 406 192 444 239 q 319 146 367 146 q 294 152 308 146 q 265 170 279 158 q 240 198 250 182 q 226 233 229 214 q 231 358 219 289 q 268 494 242 428 q 334 615 294 560 q 425 697 374 669 q 459 706 442 707 q 494 699 476 706 q 531 683 513 693 q 568 664 549 674 q 575 682 569 672 q 594 700 583 700 q 617 696 604 700 q 644 685 631 692 q 667 672 657 679 q 685 660 678 665 q 689 640 696 651 q 678 618 682 628 q 649 531 663 576 q 624 441 636 486 q 603 352 613 396 q 586 271 593 308 q 587 233 581 246 q 606 221 593 221 q 645 244 624 221 q 686 307 667 268 q 720 396 706 346 q 742 499 735 446 q 744 605 749 553 q 718 700 739 657 q 636 784 690 758 q 519 810 582 810 q 355 755 429 810 q 230 617 281 700 q 155 438 179 533 q 141 258 131 342 q 201 120 151 175 q 347 65 251 65 m 360 218 q 394 241 376 218 q 431 299 413 264 q 466 378 449 335 q 497 463 483 422 q 522 538 511 504 q 539 588 533 571 q 545 606 542 597 q 551 624 549 615 q 518 642 540 642 q 451 603 482 642 q 397 508 421 564 q 359 390 374 451 q 342 283 344 328 q 341 267 342 278 q 342 246 340 257 q 347 226 343 235 q 360 218 351 218 z "},"A":{"ha":682,"x_min":-56,"x_max":765,"o":"m -3 406 q 1 424 -3 417 q 11 425 4 426 q 91 401 49 410 q 175 392 133 392 l 176 392 q 374 646 275 522 q 572 882 472 769 q 594 889 582 893 q 621 875 607 885 q 643 896 633 896 q 674 890 653 896 q 715 875 694 883 q 750 857 735 867 q 765 839 765 847 q 763 832 765 835 q 753 820 757 825 q 744 808 749 815 q 701 708 724 771 q 658 567 679 644 q 618 407 638 490 q 584 248 599 324 q 561 111 569 172 q 553 17 553 50 q 536 0 553 0 q 508 6 524 0 q 478 19 492 11 q 454 39 464 28 q 444 61 444 50 q 453 180 444 111 q 474 328 461 249 q 360 315 415 325 q 249 297 306 304 q 169 172 210 239 q 96 49 128 104 q 84 23 89 33 q 76 -4 79 13 q 72 -11 74 -11 q 49 -11 65 -17 q 12 4 32 -6 q -26 25 -8 14 q -50 44 -43 36 q -54 60 -56 51 q -49 78 -53 69 q -40 96 -44 88 q -31 110 -35 104 q 36 202 0 151 q 103 294 72 253 q 36 310 63 296 q 23 325 29 313 q 10 353 17 338 q 1 383 4 368 q -3 406 -3 399 m 454 407 q 488 400 471 407 q 525 578 504 490 q 567 736 546 665 q 440 572 503 657 q 317 399 376 486 q 385 404 351 401 q 454 407 419 407 z "},"B":{"ha":594,"x_min":0,"x_max":640,"o":"m 0 61 q 10 204 0 119 q 38 382 21 289 q 77 567 56 475 q 121 731 99 658 q 163 850 143 804 q 199 896 183 896 q 229 890 208 896 q 269 875 250 883 q 304 857 289 867 q 319 839 319 847 q 317 832 319 835 q 307 820 311 825 q 300 808 303 815 q 259 715 281 774 q 217 584 238 656 q 178 434 197 513 q 146 282 160 356 q 208 469 175 376 q 276 640 242 561 q 337 758 304 704 q 401 849 369 813 q 454 888 425 875 q 513 901 483 901 q 593 873 564 901 q 631 799 622 844 q 631 698 640 754 q 598 586 622 642 q 537 482 574 531 q 454 403 500 433 q 496 363 478 386 q 522 314 514 340 q 531 191 540 260 q 486 63 521 122 q 393 -38 451 3 q 256 -79 335 -79 q 197 -68 225 -79 q 149 -33 168 -57 q 138 -13 140 -25 q 138 8 136 -1 q 145 20 140 17 q 157 15 150 24 q 188 -9 171 -3 q 222 -15 206 -15 q 295 13 261 -15 q 355 83 329 42 q 396 175 381 125 q 415 267 411 225 q 407 337 418 308 q 368 365 396 365 q 329 362 350 361 q 293 369 308 363 q 274 392 282 376 q 268 414 265 407 q 293 431 272 425 q 332 438 314 438 q 400 494 368 458 q 457 574 432 531 q 497 663 482 618 q 516 744 513 708 q 508 804 519 781 q 469 828 497 828 q 397 774 438 828 q 315 624 357 719 q 258 478 286 556 q 203 320 229 400 q 155 163 176 240 q 118 18 133 85 q 92 0 114 0 q 63 6 79 0 q 33 19 47 11 q 10 39 19 28 q 0 61 0 50 z "},"C":{"ha":583,"x_min":-1,"x_max":639,"o":"m 443 899 q 545 876 501 899 q 606 808 589 853 q 630 778 621 796 q 639 746 639 761 q 617 668 639 708 q 568 588 594 628 q 519 507 542 547 q 497 429 497 467 q 490 419 497 419 q 462 426 478 419 q 433 443 446 432 q 410 469 419 454 q 400 500 400 483 q 422 570 400 538 q 470 633 444 603 q 518 694 496 664 q 540 756 540 724 q 528 800 540 779 q 486 821 517 821 q 356 765 418 821 q 247 626 294 710 q 170 446 199 543 q 141 265 142 349 q 174 126 140 182 q 282 71 207 71 q 338 78 308 71 q 390 101 368 86 q 401 97 397 107 q 400 76 406 92 q 344 15 385 32 q 261 -3 304 -3 q 116 36 172 -3 q 32 138 60 75 q 1 283 4 201 q 19 448 -1 364 q 78 613 39 532 q 172 758 117 694 q 297 860 228 821 q 443 899 365 899 z "},"D":{"ha":663,"x_min":0,"x_max":681,"o":"m 144 -6 q 138 17 138 4 q 140 38 138 29 q 149 49 143 46 q 160 42 154 51 q 222 0 185 0 q 308 35 265 0 q 387 128 350 71 q 455 260 424 186 q 508 412 486 335 q 540 563 529 489 q 549 695 551 638 q 527 788 546 753 q 472 824 508 824 q 415 801 442 824 q 368 748 389 779 q 331 683 347 717 q 304 624 314 649 q 247 478 275 556 q 194 320 219 400 q 149 163 169 240 q 113 18 128 85 q 107 5 110 10 q 92 0 104 0 q 63 6 79 0 q 33 19 47 11 q 10 39 19 28 q 0 61 0 50 q 10 204 0 119 q 38 382 21 289 q 77 567 56 475 q 121 731 99 658 q 163 850 143 804 q 199 896 183 896 q 229 890 208 896 q 269 875 250 883 q 304 857 289 867 q 319 839 319 847 q 317 832 319 835 q 307 820 311 825 q 300 808 303 815 q 265 729 283 778 q 228 621 246 681 q 194 494 211 561 q 163 361 176 428 q 212 507 186 436 q 265 640 238 578 q 300 718 279 674 q 349 802 321 763 q 414 869 378 842 q 496 896 450 896 q 608 855 567 896 q 665 747 649 814 q 674 593 681 679 q 642 417 667 507 q 576 240 617 326 q 483 87 535 154 q 369 -22 431 19 q 242 -62 308 -62 q 189 -50 214 -62 q 144 -6 164 -37 z "},"E":{"ha":526,"x_min":-19,"x_max":568,"o":"m 372 896 q 475 873 432 896 q 536 806 518 850 q 560 776 551 793 q 568 743 568 758 q 554 683 568 711 q 524 627 540 654 q 495 572 508 600 q 482 511 482 544 q 475 501 482 501 q 440 507 458 501 q 408 524 422 513 q 383 551 393 535 q 374 589 374 568 q 389 621 374 603 q 422 660 404 639 q 454 704 439 681 q 469 753 469 728 q 449 801 469 785 q 400 817 429 817 q 314 793 351 817 q 252 733 276 769 q 217 653 228 696 q 213 573 207 611 q 240 508 218 535 q 303 478 263 482 q 333 485 322 483 q 364 486 344 486 q 379 473 372 486 q 389 444 386 460 q 388 415 392 428 q 369 401 383 401 q 334 403 349 401 q 299 410 319 406 q 206 354 246 393 q 144 266 167 315 q 115 163 121 217 q 126 65 110 110 q 180 -8 142 21 q 282 -36 218 -36 q 389 -12 346 -36 q 472 50 432 11 q 486 49 481 58 q 485 28 489 42 q 449 -31 474 -6 q 394 -73 425 -56 q 328 -99 363 -90 q 261 -108 293 -108 q 122 -77 179 -108 q 31 3 64 -46 q -11 115 -3 53 q -1 238 -19 176 q 65 353 18 299 q 189 442 113 407 q 115 508 140 465 q 86 601 90 550 q 99 703 82 651 q 151 799 115 756 q 243 869 188 842 q 372 896 299 896 z "},"F":{"ha":444,"x_min":-153,"x_max":618,"o":"m 569 896 q 589 885 579 894 q 605 860 599 875 q 615 831 611 846 q 617 803 618 815 q 599 788 615 788 q 431 783 515 788 q 263 769 347 779 q 317 751 290 763 q 346 728 344 739 q 343 721 346 726 q 321 678 329 701 q 290 586 303 633 q 267 493 278 539 q 390 493 328 497 q 399 483 394 493 q 406 461 404 474 q 409 438 408 449 q 406 424 410 426 q 313 358 351 396 q 249 273 275 319 q 207 173 222 226 q 183 64 192 119 q 181 38 182 49 q 181 17 181 26 q 164 0 181 0 q 135 6 151 0 q 106 19 119 11 q 82 39 92 28 q 72 61 72 50 q 82 194 72 114 q 107 360 92 275 q 15 307 57 338 q 0 311 6 301 q -12 355 -11 331 q -11 399 -14 379 q -3 419 -8 411 q 13 432 1 426 q 129 472 69 460 q 163 617 144 543 q 213 763 181 692 q 109 749 154 756 q 7 728 64 742 q -41 715 -19 721 q -79 701 -62 708 q -92 695 -86 699 q -103 688 -97 692 q -110 686 -108 685 q -126 702 -118 686 q -140 738 -133 718 q -149 778 -146 758 q -151 808 -153 799 q -105 836 -150 822 q 11 862 -60 850 q 172 883 82 874 q 354 897 261 892 q 463 901 408 900 q 569 896 517 903 m 244 407 q 233 356 239 385 q 222 306 228 328 q 262 365 239 333 q 313 419 285 397 q 244 407 278 415 z "},"G":{"ha":563,"x_min":1,"x_max":618,"o":"m 422 899 q 525 876 482 899 q 586 808 568 853 q 610 778 601 796 q 618 746 618 761 q 596 668 618 708 q 547 588 574 628 q 499 507 521 547 q 476 429 476 467 q 469 419 476 419 q 441 426 457 419 q 412 443 425 432 q 389 469 399 454 q 379 500 379 483 q 401 570 379 539 q 449 630 422 601 q 497 685 475 658 q 518 746 518 713 q 497 799 518 778 q 444 821 476 821 q 406 811 428 821 q 324 749 363 792 q 255 651 286 707 q 200 531 224 596 q 163 402 176 467 q 145 278 149 338 q 150 172 142 218 q 181 99 158 126 q 239 71 203 71 q 294 90 269 71 q 339 139 319 110 q 372 203 358 168 q 394 269 386 238 q 309 252 350 264 q 228 222 268 240 q 215 228 219 218 q 212 270 208 246 q 226 311 215 294 q 246 322 233 321 q 372 340 313 336 q 497 332 432 343 q 514 313 508 329 q 519 283 519 296 q 507 269 519 267 q 493 272 500 271 q 479 272 486 272 q 485 267 482 269 q 490 263 488 265 q 499 246 500 253 q 494 224 499 239 q 466 118 481 172 q 440 15 451 64 q 422 -74 429 -35 q 413 -133 414 -112 q 394 -149 413 -149 q 367 -142 382 -149 q 340 -126 353 -136 q 320 -105 328 -117 q 313 -82 313 -93 q 316 -53 313 -71 q 324 -15 319 -35 q 333 26 328 6 q 342 67 338 47 q 320 42 333 54 q 290 21 307 31 q 256 6 274 11 q 221 0 238 0 q 97 39 144 0 q 25 141 49 78 q 1 285 1 204 q 20 449 1 365 q 76 614 39 533 q 166 758 114 694 q 283 860 218 821 q 422 899 347 899 z "},"H":{"ha":579,"x_min":-49,"x_max":663,"o":"m -1 61 q 7 181 -1 111 q 29 331 15 251 q -11 343 6 335 q -24 358 -17 346 q -36 386 -31 371 q -45 417 -42 401 q -49 439 -49 432 q -44 456 -49 451 q -35 458 -42 461 q 6 444 -15 450 q 47 433 26 438 q 85 603 64 521 q 126 751 106 686 q 165 856 146 817 q 197 896 183 896 q 228 890 207 896 q 269 875 249 883 q 304 857 289 867 q 319 839 319 847 q 315 832 319 833 q 307 820 311 825 q 299 808 303 815 q 268 741 283 782 q 237 650 253 700 q 206 542 221 600 q 176 426 190 485 q 232 433 203 429 q 290 440 261 436 q 346 446 319 443 q 393 449 372 449 q 431 614 410 533 q 471 757 451 694 q 509 858 490 819 q 540 896 528 896 q 571 890 550 896 q 612 875 592 883 q 647 857 632 867 q 663 839 663 847 q 658 832 663 833 q 649 820 654 825 q 642 808 644 815 q 610 739 626 781 q 578 645 594 697 q 547 535 563 593 q 518 417 532 476 q 532 393 528 407 q 532 376 535 382 q 514 371 529 371 l 507 371 q 484 260 494 314 q 466 160 474 207 q 454 76 458 114 q 450 17 450 39 q 433 0 450 0 q 405 6 421 0 q 375 19 389 11 q 351 39 361 28 q 342 61 342 50 q 351 192 342 115 q 376 357 361 269 q 264 340 324 349 q 154 326 204 331 q 120 142 133 226 q 107 17 107 58 q 90 0 107 0 q 62 6 78 0 q 32 19 46 11 q 8 39 18 28 q -1 61 -1 50 z "},"I":{"ha":236,"x_min":0,"x_max":319,"o":"m 0 61 q 10 204 0 119 q 38 382 21 289 q 77 567 56 475 q 121 731 99 658 q 163 850 143 804 q 199 896 183 896 q 229 890 208 896 q 269 875 250 883 q 304 857 289 867 q 319 839 319 847 q 317 832 319 835 q 307 820 311 825 q 300 808 303 815 q 257 708 279 771 q 214 567 235 644 q 174 407 193 490 q 140 248 154 324 q 117 111 125 172 q 108 17 108 50 q 92 0 108 0 q 63 6 79 0 q 33 19 47 11 q 10 39 19 28 q 0 61 0 50 z "},"J":{"ha":485,"x_min":-62,"x_max":499,"o":"m -62 18 q -27 132 -62 78 q 63 232 8 186 q 184 314 118 278 q 311 375 250 350 q 344 547 332 460 q 360 713 357 633 q 353 798 361 763 q 326 833 346 833 q 297 814 313 833 q 252 743 269 782 q 224 663 235 704 q 208 578 214 621 q 199 496 203 535 q 199 481 199 488 q 200 467 200 474 q 200 460 203 463 q 185 451 196 453 q 160 449 175 449 q 99 464 121 449 q 85 519 78 479 q 135 688 100 600 q 218 844 169 776 q 273 885 239 875 q 335 896 307 896 q 390 886 361 896 q 442 861 418 876 q 483 826 467 846 q 499 789 499 807 q 490 631 499 724 q 460 439 481 539 q 408 240 440 339 q 331 63 376 142 q 225 -64 285 -15 q 90 -112 165 -112 q 33 -103 61 -112 q -15 -78 6 -94 q -49 -37 -36 -61 q -62 18 -62 -12 m 56 -47 q 113 -31 86 -47 q 161 10 140 -14 q 198 61 182 33 q 224 113 214 89 q 263 211 244 158 q 297 322 282 264 q 190 265 244 299 q 92 192 136 232 q 20 108 49 153 q -8 14 -8 63 q 10 -30 -8 -12 q 56 -47 28 -47 z "},"K":{"ha":629,"x_min":0,"x_max":732,"o":"m 0 61 q 10 204 0 119 q 38 382 21 289 q 77 567 56 475 q 121 731 99 658 q 163 850 143 804 q 199 896 183 896 q 229 890 208 896 q 269 875 250 883 q 304 857 289 867 q 319 839 319 847 q 317 832 319 835 q 307 820 311 825 q 300 808 303 815 q 269 744 285 783 q 239 656 254 704 q 209 551 224 607 q 181 439 194 496 q 190 435 186 436 q 200 431 194 433 q 313 538 256 478 q 425 660 371 597 q 524 786 479 724 q 600 903 569 849 q 606 916 604 910 q 610 929 607 922 q 614 935 611 932 q 637 932 621 939 q 670 913 653 925 q 703 888 688 901 q 724 867 718 875 q 703 812 732 854 q 624 711 675 769 q 507 585 574 653 q 372 456 440 518 q 324 412 349 433 q 275 371 300 390 q 357 263 314 317 q 444 160 400 210 q 533 69 489 111 q 619 -4 578 26 q 632 -12 626 -8 q 644 -18 638 -15 q 650 -22 647 -18 q 644 -44 653 -29 q 621 -74 635 -58 q 592 -104 607 -90 q 568 -122 576 -118 q 517 -95 556 -129 q 426 -3 478 -61 q 316 128 375 54 q 203 278 257 203 q 188 299 196 289 q 174 321 181 310 q 156 328 167 322 q 122 143 135 228 q 108 17 108 58 q 92 0 108 0 q 63 6 79 0 q 33 19 47 11 q 10 39 19 28 q 0 61 0 50 z "},"L":{"ha":393,"x_min":-90,"x_max":449,"o":"m -19 -32 q -8 119 -19 26 q 23 314 4 211 q 65 521 42 417 q 113 708 89 625 q 159 844 138 792 q 196 896 181 896 q 226 890 206 896 q 266 875 246 883 q 301 857 286 867 q 317 839 317 847 q 314 832 317 835 q 304 820 308 825 q 296 808 300 815 q 253 703 276 772 q 208 549 231 635 q 164 371 185 464 q 126 192 143 278 q 100 38 110 107 q 89 -68 90 -32 q 237 -44 158 -53 q 375 -35 315 -36 q 433 -49 428 -35 q 441 -74 438 -57 q 447 -110 444 -92 q 447 -142 449 -128 q 439 -160 444 -157 l 432 -160 q 408 -153 419 -154 q 294 -144 356 -146 q 172 -149 233 -143 q 51 -168 110 -156 q -58 -201 -8 -181 q -81 -198 -74 -208 q -90 -172 -89 -187 q -85 -141 -90 -157 q -67 -119 -79 -125 q 33 -83 -22 -99 q -3 -61 13 -75 q -19 -32 -19 -47 z "},"M":{"ha":669,"x_min":-33,"x_max":760,"o":"m 439 61 q 447 185 439 113 q 469 338 456 257 q 501 501 483 418 q 539 657 519 583 q 392 376 457 518 q 269 86 328 235 q 264 71 267 75 q 254 65 261 61 q 240 74 247 67 q 225 93 232 82 q 213 117 215 106 q 208 144 211 129 q 206 384 194 263 q 231 642 217 506 q 174 469 201 563 q 124 288 146 376 q 88 127 103 200 q 72 15 74 54 q 56 0 72 0 q 27 6 43 0 q -2 21 11 11 q -24 42 -15 31 q -33 65 -33 54 q -19 188 -31 117 q 9 338 -8 258 q 48 498 26 417 q 92 651 69 579 q 136 781 114 724 q 176 868 158 838 q 204 896 193 896 q 234 889 214 896 q 274 872 254 882 q 309 852 294 863 q 324 833 324 842 q 321 827 322 829 q 317 818 319 825 q 277 539 288 676 q 274 275 267 401 q 422 567 343 426 q 596 846 500 708 q 606 860 600 851 q 620 876 613 868 q 636 890 628 885 q 651 896 644 896 q 680 890 661 896 q 716 875 699 883 q 747 857 733 867 q 760 839 760 847 q 756 832 760 833 q 747 820 751 825 q 739 808 742 815 q 696 708 718 771 q 653 567 674 644 q 613 407 632 490 q 578 248 593 324 q 556 111 564 172 q 547 17 547 50 q 531 0 547 0 q 502 6 518 0 q 472 19 486 11 q 449 39 458 28 q 439 61 439 50 z "},"N":{"ha":560,"x_min":-7,"x_max":650,"o":"m -7 61 q 3 204 -7 119 q 31 382 14 289 q 70 567 49 475 q 114 731 92 658 q 156 850 136 804 q 192 896 176 896 q 222 890 201 896 q 263 875 243 883 q 297 857 282 867 q 313 839 313 847 q 311 830 313 833 q 310 819 310 826 q 316 529 307 672 q 346 243 325 386 q 369 386 356 311 q 399 534 383 461 q 433 672 415 607 q 469 788 451 738 q 501 867 486 838 q 529 896 517 896 q 560 890 539 896 q 600 875 581 883 q 635 857 619 867 q 650 839 650 847 q 647 832 650 835 q 638 820 642 825 q 629 808 633 815 q 586 708 608 771 q 543 567 564 644 q 503 407 522 490 q 470 248 485 324 q 447 111 456 172 q 439 17 439 50 q 422 0 439 0 q 353 18 378 0 q 322 60 329 36 q 293 197 307 122 q 267 350 279 271 q 247 510 256 429 q 236 667 239 590 q 187 490 211 588 q 144 301 163 393 q 113 132 125 208 q 101 17 101 56 q 85 0 101 0 q 56 6 72 0 q 26 19 40 11 q 3 39 13 28 q -7 61 -7 50 z "},"O":{"ha":599,"x_min":-6,"x_max":599,"o":"m 229 68 q 297 101 264 68 q 358 190 329 135 q 408 313 386 244 q 445 454 431 382 q 465 595 460 526 q 465 717 471 664 q 439 800 460 774 q 389 826 418 826 q 335 807 361 826 q 293 767 310 788 q 223 651 254 721 q 171 504 192 582 q 140 349 150 426 q 137 208 131 271 q 165 107 143 146 q 229 68 188 68 m 214 846 q 275 884 242 869 q 344 899 308 899 q 378 891 361 899 q 413 875 396 883 q 517 838 476 875 q 578 738 558 800 q 599 598 599 676 q 581 437 599 519 q 531 276 564 354 q 453 135 499 197 q 351 36 408 74 q 228 -1 293 -1 q 88 48 140 -1 q 15 175 36 97 q 1 349 -6 253 q 36 540 8 446 q 110 715 64 633 q 214 846 156 797 z "},"P":{"ha":603,"x_min":0,"x_max":649,"o":"m 0 61 q 10 204 0 119 q 38 382 21 289 q 77 567 56 475 q 121 731 99 658 q 163 850 143 804 q 199 896 183 896 q 229 890 208 896 q 269 875 250 883 q 304 857 289 867 q 319 839 319 847 q 317 832 319 835 q 307 820 311 825 q 300 808 303 815 q 259 715 281 774 q 217 584 238 656 q 178 434 197 513 q 146 282 160 356 q 208 469 175 376 q 276 640 242 561 q 337 758 304 704 q 401 849 369 813 q 454 888 425 875 q 513 901 483 901 q 606 860 574 901 q 643 758 638 819 q 631 625 649 697 q 576 492 613 553 q 487 390 540 431 q 368 349 433 349 q 315 360 340 349 q 269 394 289 371 q 264 410 265 400 q 265 427 263 419 q 272 438 267 435 q 286 432 278 440 q 331 415 304 415 q 404 446 371 415 q 462 522 438 476 q 500 622 486 568 q 516 721 514 675 q 507 797 518 767 q 469 828 496 828 q 397 774 438 828 q 315 624 357 719 q 258 478 286 556 q 203 320 229 400 q 155 163 176 240 q 118 18 133 85 q 92 0 114 0 q 63 6 79 0 q 33 19 47 11 q 10 39 19 28 q 0 61 0 50 z "},"Q":{"ha":604,"x_min":-3,"x_max":639,"o":"m 229 67 q 297 100 261 67 q 241 126 268 115 q 190 142 214 136 q 184 144 189 143 q 179 146 179 144 q 176 158 174 149 q 201 194 183 176 q 233 208 219 213 q 344 164 288 192 q 400 289 375 217 q 442 438 425 361 q 465 587 458 514 q 465 717 471 660 q 439 799 460 772 q 389 826 418 826 q 335 806 360 826 q 293 765 310 786 q 223 650 254 719 q 171 503 192 581 q 140 347 150 425 q 137 207 131 269 q 165 106 143 144 q 229 67 188 67 m 344 899 q 380 890 363 899 q 413 874 397 882 q 521 834 479 874 q 581 730 563 794 q 599 583 600 665 q 578 417 597 501 q 522 253 558 332 q 438 114 486 174 q 515 61 478 89 q 589 3 553 33 q 628 -37 617 -21 q 638 -64 639 -54 q 630 -84 636 -71 q 615 -109 624 -97 q 599 -129 607 -121 q 586 -136 590 -137 l 582 -132 q 571 -114 579 -125 q 488 -29 540 -74 q 376 54 436 15 q 306 12 343 26 q 228 -3 268 -3 q 116 26 161 -3 q 44 103 71 54 q 7 215 17 151 q 1 349 -3 278 q 23 492 6 419 q 68 631 40 564 q 133 753 96 697 q 214 844 171 808 q 275 883 242 868 q 344 899 308 899 z "},"R":{"ha":596,"x_min":-7,"x_max":642,"o":"m 350 350 q 472 128 404 229 q 607 -49 539 26 q 617 -58 613 -54 q 629 -65 622 -61 q 633 -71 633 -68 q 624 -92 635 -79 q 596 -117 613 -104 q 562 -141 579 -131 q 535 -153 544 -151 q 489 -117 521 -157 q 332 126 397 -3 q 218 389 267 254 q 157 196 185 292 q 111 18 129 100 q 85 0 107 0 q 56 6 72 0 q 26 19 40 11 q 3 39 13 28 q -7 61 -7 50 q 3 204 -7 119 q 31 382 14 289 q 70 567 49 475 q 114 731 92 658 q 157 850 136 804 q 192 896 178 896 q 222 890 201 896 q 263 875 243 883 q 297 857 282 867 q 313 839 313 847 q 310 832 313 835 q 300 820 304 825 q 293 808 296 815 q 252 715 274 774 q 210 584 231 656 q 172 434 190 513 q 139 282 153 356 q 199 463 167 374 q 269 640 232 553 q 330 758 297 704 q 394 849 363 813 q 447 888 418 875 q 506 901 476 901 q 599 860 567 901 q 636 758 631 819 q 624 625 642 697 q 569 492 606 553 q 480 390 533 431 q 361 349 426 349 q 350 350 354 349 m 236 439 q 278 438 256 442 q 324 415 300 433 q 397 446 364 415 q 455 522 431 476 q 493 622 479 568 q 509 721 507 675 q 500 797 511 767 q 463 828 489 828 q 390 774 431 828 q 308 624 350 719 q 271 531 289 578 q 236 439 253 485 z "},"S":{"ha":576,"x_min":-33,"x_max":611,"o":"m 464 417 q 435 423 451 417 q 406 440 419 429 q 382 466 392 451 q 372 496 372 481 q 394 567 372 533 q 442 631 417 600 q 490 691 468 661 q 513 753 513 721 q 501 797 513 776 q 458 817 489 817 q 375 792 419 817 q 293 727 331 767 q 231 640 256 688 q 207 546 207 592 q 231 474 207 501 q 289 428 254 447 q 363 397 324 410 q 432 368 401 383 q 516 297 485 342 q 535 190 547 253 q 486 88 522 132 q 401 13 450 43 q 296 -33 353 -18 q 183 -47 239 -47 q 96 -33 138 -47 q 24 9 54 -18 q -19 76 -6 36 q -22 167 -33 117 q 18 254 -11 215 q 33 272 24 263 q 53 292 42 282 q 76 308 64 301 q 100 314 89 314 q 130 306 114 314 q 160 287 146 299 q 184 261 174 275 q 199 235 194 247 q 200 221 200 228 q 192 214 200 214 q 149 203 171 214 q 108 176 126 193 q 78 139 90 160 q 67 96 67 118 q 76 64 67 76 q 101 44 86 51 q 133 34 115 38 q 165 31 150 31 q 235 40 196 31 q 310 69 275 50 q 370 117 346 89 q 394 185 394 146 q 340 271 394 235 q 253 317 299 297 q 167 362 207 338 q 99 422 128 386 q 63 517 71 458 q 81 651 54 583 q 158 773 107 718 q 276 862 208 828 q 417 896 343 896 q 518 873 475 896 q 579 806 561 850 q 603 776 594 793 q 611 743 611 758 q 589 665 611 706 q 541 585 567 625 q 493 504 515 544 q 471 426 471 464 q 464 417 471 417 z "},"T":{"ha":493,"x_min":-83,"x_max":667,"o":"m 617 896 q 637 885 628 896 q 653 860 646 875 q 663 831 660 846 q 665 803 667 815 q 647 788 664 788 q 513 788 582 792 q 376 776 443 783 q 401 753 403 764 q 388 721 399 743 q 370 681 379 703 q 353 631 361 658 q 306 459 328 551 q 267 281 283 367 q 240 124 250 194 q 229 17 229 54 q 213 0 229 0 q 184 6 200 0 q 154 19 168 11 q 131 39 140 28 q 121 61 121 50 q 126 151 121 100 q 139 261 131 203 q 159 383 147 319 q 185 507 171 446 q 215 635 199 572 q 256 763 232 699 q 168 750 207 756 q 97 739 129 744 q 39 726 65 733 q -10 710 13 719 q -22 703 -17 707 q -33 696 -28 700 q -40 694 -39 693 q -56 710 -49 694 q -70 747 -64 726 q -80 787 -76 767 q -82 817 -83 807 q -24 847 -79 835 q 135 880 53 868 q 300 897 218 892 q 463 901 382 901 q 617 896 543 900 z "},"U":{"ha":567,"x_min":0,"x_max":657,"o":"m 338 61 q 344 177 338 110 q 364 321 351 244 q 360 308 361 314 q 356 296 358 303 q 320 203 342 254 q 272 106 299 151 q 215 31 244 61 q 154 0 185 0 q 108 7 131 0 q 66 25 85 14 q 34 51 47 36 q 15 83 21 67 q 3 143 6 110 q 1 215 0 176 q 42 510 7 358 q 126 794 78 661 q 158 868 143 840 q 185 896 174 896 q 215 890 194 896 q 256 875 236 883 q 290 857 275 867 q 306 839 306 847 q 303 832 306 835 q 293 820 297 825 q 285 808 289 815 q 223 672 251 747 q 174 515 194 596 q 140 352 153 433 q 125 200 128 271 q 132 108 122 136 q 161 79 142 79 q 197 98 178 79 q 233 147 215 117 q 269 213 251 176 q 301 283 286 249 q 326 345 315 317 q 343 388 338 374 q 378 481 361 435 q 408 566 394 526 q 431 636 421 606 q 444 683 440 667 q 494 836 469 776 q 536 896 518 896 q 566 890 546 896 q 606 875 586 883 q 642 857 626 867 q 657 839 657 847 q 654 832 657 835 q 644 820 649 825 q 636 808 640 815 q 588 692 613 767 q 540 529 564 618 q 497 347 517 440 q 464 176 476 254 q 451 97 457 138 q 444 17 444 57 q 428 0 444 0 q 399 6 415 0 q 370 19 383 11 q 347 39 357 28 q 338 61 338 50 z "},"V":{"ha":551,"x_min":14,"x_max":636,"o":"m 147 0 q 102 10 125 0 q 61 33 79 19 q 31 62 43 47 q 18 88 19 76 q 15 190 14 133 q 21 310 15 247 q 35 438 26 372 q 57 567 44 504 q 88 694 71 635 q 121 799 104 754 q 153 869 138 843 q 181 896 169 896 q 210 890 190 896 q 249 876 229 885 q 284 857 269 867 q 299 839 299 847 q 291 826 299 833 q 278 808 283 819 q 220 659 244 740 q 179 494 196 578 q 153 326 163 410 q 142 167 144 242 q 142 137 142 150 q 148 119 143 124 q 161 122 153 115 q 183 150 169 129 q 288 321 236 229 q 383 508 340 413 q 456 701 425 604 q 499 886 488 797 q 498 907 500 897 q 499 919 496 917 q 521 925 503 926 q 561 918 539 924 q 603 905 583 913 q 629 892 622 897 q 633 862 636 886 q 619 799 631 838 q 560 616 596 713 q 476 423 524 519 q 374 233 429 326 q 257 63 318 140 q 203 16 233 32 q 147 0 174 0 z "},"W":{"ha":851,"x_min":14,"x_max":936,"o":"m 447 0 q 402 10 425 0 q 361 33 379 19 q 331 62 343 47 q 318 88 319 76 q 316 127 317 107 q 315 171 315 147 q 278 117 297 143 q 240 67 260 90 q 195 18 217 36 q 147 0 174 0 q 102 10 125 0 q 61 33 79 19 q 31 62 43 47 q 18 88 19 76 q 15 190 14 133 q 21 310 15 247 q 35 438 26 372 q 57 567 44 504 q 88 694 71 635 q 121 799 104 754 q 153 869 138 843 q 181 896 169 896 q 210 890 190 896 q 249 876 229 885 q 284 857 269 867 q 299 839 299 847 q 291 826 299 833 q 278 808 283 819 q 220 659 244 740 q 179 494 196 578 q 153 326 163 410 q 142 167 144 242 q 142 137 142 150 q 148 119 143 124 q 161 122 153 115 q 183 150 169 129 q 258 269 221 207 q 331 399 296 332 q 367 603 342 499 q 431 806 393 708 q 451 832 438 825 q 476 839 465 839 q 523 831 501 839 q 560 811 544 824 q 583 783 575 799 q 586 750 590 767 q 535 599 565 674 q 472 454 506 525 q 452 306 460 379 q 442 167 444 233 q 442 137 442 150 q 448 119 443 124 q 461 122 453 115 q 483 150 469 129 q 588 321 536 229 q 683 508 640 413 q 756 701 725 604 q 799 886 788 797 q 798 907 800 897 q 799 919 796 917 q 821 925 803 926 q 861 918 839 924 q 903 905 883 913 q 929 892 922 897 q 933 862 936 886 q 919 799 931 838 q 860 616 896 713 q 776 423 824 519 q 674 233 729 326 q 557 63 618 140 q 503 16 533 32 q 447 0 474 0 z "},"X":{"ha":683,"x_min":-1,"x_max":774,"o":"m 4 93 q 122 287 58 193 q 257 471 186 381 q 223 551 243 503 q 183 650 203 600 q 149 746 164 700 q 133 818 135 792 q 140 849 133 839 q 161 865 144 856 q 199 882 178 874 q 238 894 219 890 q 264 896 257 899 q 272 883 275 892 q 271 860 269 875 q 283 800 274 835 q 305 728 293 765 q 330 653 317 690 q 354 589 343 617 q 501 747 425 669 q 667 883 578 824 q 685 892 678 890 q 696 894 692 894 q 717 883 704 894 q 743 858 731 872 q 765 827 756 843 q 772 803 774 811 q 761 789 769 792 q 739 776 753 786 q 564 628 646 710 q 406 463 482 547 q 449 363 422 422 q 506 244 476 304 q 565 131 536 183 q 617 53 594 79 q 613 31 626 43 q 586 15 601 22 q 554 3 571 7 q 524 1 538 0 q 503 8 510 1 q 454 78 481 35 q 401 169 428 121 q 351 266 375 218 q 311 351 328 314 q 184 187 244 271 q 75 11 124 103 q 53 3 67 -6 q 31 18 42 7 q 12 42 19 29 q 1 69 4 56 q 4 93 -1 83 z "},"Y":{"ha":569,"x_min":-49,"x_max":660,"o":"m 489 294 q 464 175 478 242 q 429 39 450 108 q 380 -97 408 -31 q 313 -216 351 -164 q 222 -300 274 -268 q 104 -332 171 -332 q 47 -323 75 -332 q -1 -297 19 -314 q -35 -256 -22 -281 q -49 -201 -49 -232 q -6 -78 -47 -132 q 89 15 36 -24 q 44 44 63 26 q 18 83 25 63 q 7 143 10 110 q 6 215 4 176 q 47 510 11 358 q 131 794 82 661 q 162 868 147 840 q 188 896 176 896 q 218 890 197 896 q 259 875 239 883 q 294 857 279 867 q 310 839 310 847 q 306 832 310 833 q 297 820 301 825 q 289 808 292 815 q 227 672 256 747 q 177 515 199 596 q 143 352 156 433 q 128 200 131 271 q 135 108 125 136 q 165 79 146 79 q 210 106 188 79 q 251 169 232 133 q 285 238 271 204 q 307 288 300 272 q 331 347 321 319 q 346 388 342 374 q 381 481 364 435 q 410 566 397 526 q 433 636 424 606 q 447 683 443 667 q 498 836 474 776 q 539 896 522 896 q 569 890 549 896 q 610 875 590 883 q 644 857 629 867 q 660 839 660 847 q 657 832 660 833 q 648 820 653 825 q 640 808 643 815 q 600 717 621 775 q 560 590 579 660 q 522 443 540 519 q 489 294 503 367 m 151 0 q 99 -38 125 -17 q 53 -86 74 -60 q 19 -142 32 -112 q 6 -206 6 -172 q 24 -249 6 -232 q 69 -267 42 -267 q 127 -250 100 -267 q 175 -210 154 -233 q 212 -158 196 -186 q 238 -107 228 -131 q 274 -17 258 -61 q 307 85 290 26 q 274 69 290 78 q 242 53 257 61 q 202 15 224 32 q 151 0 181 -1 m 350 269 q 322 196 336 232 q 288 124 307 160 q 304 131 296 128 q 321 138 313 135 q 335 203 328 171 q 350 269 343 236 z "},"Z":{"ha":601,"x_min":-46,"x_max":685,"o":"m 100 101 q 95 90 96 94 q 107 89 94 86 q 228 108 167 101 q 346 117 290 115 q 447 117 401 119 q 518 106 492 114 q 538 94 529 103 q 549 65 546 85 q 551 36 550 51 q 551 8 551 21 q 549 -15 551 -6 q 543 -25 547 -24 q 538 -24 540 -28 q 527 -19 532 -21 q 515 -15 522 -17 q 390 3 458 -3 q 251 6 321 8 q 114 -6 181 4 q -7 -35 47 -17 q -24 -24 -18 -39 q -39 21 -32 -1 q -31 50 -46 43 l -26 53 q -17 90 -36 63 q 51 192 10 135 q 142 314 93 250 q 244 444 190 378 q 348 574 297 511 q 444 691 399 636 q 522 788 489 746 q 347 769 426 788 q 186 714 267 751 q 174 708 179 711 q 164 700 169 704 q 158 699 161 697 q 144 715 151 699 q 133 751 138 731 q 124 791 128 771 q 122 821 121 811 q 174 851 125 839 q 295 880 239 871 q 406 892 351 889 q 517 896 461 896 q 640 896 574 896 q 657 887 649 896 q 672 865 665 878 q 681 840 678 853 q 685 819 685 826 q 678 794 685 806 q 656 768 671 783 q 528 624 599 704 q 385 458 457 543 q 244 288 313 372 q 124 133 176 204 q 112 118 117 126 q 100 101 107 110 z "},"[":{"ha":354,"x_min":13,"x_max":424,"o":"m 185 835 q 197 885 190 858 q 210 931 203 911 q 247 967 224 960 q 301 975 271 974 q 339 976 324 976 q 376 976 354 976 q 404 972 392 978 q 419 949 417 967 q 423 925 422 938 q 421 900 424 913 q 415 890 419 892 q 407 892 411 889 q 385 896 397 894 q 363 897 374 897 l 311 897 l 125 -6 q 167 -5 149 -6 q 210 -3 185 -4 q 222 -5 218 -3 q 228 -15 226 -7 q 216 -55 231 -33 q 181 -79 201 -76 q 134 -81 157 -81 q 89 -81 111 -81 q 56 -72 71 -81 q 31 -49 42 -62 q 17 -17 21 -35 q 15 15 13 0 q 25 74 18 39 q 38 136 32 108 l 185 835 z "},"\\":{"ha":688,"x_min":133,"x_max":649,"o":"m 544 26 q 458 153 506 75 q 362 320 410 231 q 270 501 314 410 q 194 671 226 593 q 148 803 163 749 q 143 871 133 857 q 172 889 150 882 q 215 896 193 896 q 257 886 243 896 q 261 876 261 882 q 260 862 261 869 q 261 846 260 854 q 293 731 268 800 q 352 581 318 661 q 427 417 386 501 q 507 258 468 333 q 581 125 546 183 q 639 39 615 67 q 642 21 649 28 q 620 3 633 8 q 593 1 607 -1 q 566 9 579 3 q 544 26 553 15 z "},"]":{"ha":369,"x_min":-42,"x_max":371,"o":"m 197 61 q 186 11 193 38 q 172 -35 179 -15 q 136 -71 160 -64 q 81 -79 113 -78 q 43 -81 58 -81 q 6 -81 28 -81 q -22 -76 -10 -81 q -37 -53 -35 -71 q -41 -28 -40 -42 q -39 -4 -42 -15 q -33 6 -37 4 q -25 4 -29 7 q 21 -1 -7 -1 l 71 -1 l 257 901 q 215 901 233 901 q 174 899 197 900 q 156 911 157 899 q 167 951 153 929 q 203 975 181 972 q 248 977 225 976 q 294 976 271 978 q 327 967 313 976 q 352 944 342 958 q 367 913 363 931 q 368 881 371 896 q 358 822 364 857 q 344 760 351 788 l 197 61 z "},"^":{"ha":438,"x_min":138,"x_max":526,"o":"m 244 810 q 217 796 231 800 q 183 804 203 792 q 143 840 160 819 q 140 851 138 847 q 149 857 143 854 q 182 872 163 861 q 222 899 201 883 q 262 930 242 914 q 299 958 282 946 q 329 977 314 969 q 364 985 344 985 q 397 975 386 985 q 418 953 407 965 q 465 903 442 928 q 515 854 489 878 q 514 833 526 846 q 492 815 506 824 q 464 801 478 807 q 438 795 450 796 q 418 801 425 794 q 379 846 396 821 q 347 896 363 871 q 297 853 321 875 q 244 810 272 831 z "},"_":{"ha":479,"x_min":-42,"x_max":410,"o":"m 17 -12 q -24 8 -7 -12 q -42 56 -42 28 q -38 68 -42 67 q -29 67 -35 69 q -1 62 -19 63 q 36 61 18 61 q 111 63 68 61 q 199 65 154 64 q 288 68 244 67 q 361 69 331 69 q 397 51 383 69 q 410 13 410 33 q 392 -1 410 -4 q 305 -1 354 0 q 204 -5 256 -3 q 103 -10 153 -7 q 17 -12 54 -12 z "},"`":{"ha":221,"x_min":0,"x_max":165,"o":"m 69 914 q 89 907 89 914 q 88 902 89 904 q 88 893 88 900 q 114 804 90 840 q 161 757 138 768 q 165 751 165 754 q 157 749 164 749 q 115 753 139 749 q 67 769 90 758 q 26 797 44 779 q 3 840 8 814 q 1 870 0 854 q 7 897 1 886 q 34 913 14 911 q 69 914 54 914 z "},"a":{"ha":465,"x_min":-4,"x_max":592,"o":"m 242 94 q 245 121 244 108 q 249 147 246 133 q 250 157 250 150 q 181 47 219 93 q 94 0 142 0 q 30 24 53 0 q 3 86 7 49 q 6 213 -4 143 q 43 348 17 282 q 109 469 69 414 q 200 551 149 524 q 234 560 217 561 q 269 553 251 560 q 306 538 288 547 q 343 518 324 528 q 347 526 346 521 q 350 536 349 532 q 371 554 358 554 q 394 550 381 554 q 419 540 407 546 q 442 526 432 533 q 460 514 453 519 q 464 494 471 506 q 453 471 457 482 q 421 374 436 425 q 393 271 406 322 q 371 172 381 219 q 354 86 361 124 q 358 69 351 71 q 374 76 365 68 q 433 152 406 108 q 482 243 460 196 q 522 336 504 290 q 553 418 539 382 q 564 429 557 426 q 578 429 571 432 q 588 419 585 426 q 589 404 592 413 q 565 342 579 381 q 529 258 550 303 q 484 167 508 213 q 433 84 460 121 q 376 24 406 47 q 318 0 347 0 q 285 8 300 0 q 260 31 271 17 q 245 61 250 44 q 242 94 240 78 m 135 72 q 169 95 151 72 q 206 153 188 118 q 242 233 225 189 q 273 317 258 276 q 298 392 288 358 q 314 442 308 425 q 320 460 317 451 q 328 478 324 469 q 294 496 317 496 q 227 457 258 496 q 172 362 196 418 q 134 244 149 306 q 117 138 119 182 q 116 121 117 132 q 117 99 115 110 q 122 81 118 89 q 135 72 126 72 z "},"b":{"ha":450,"x_min":0,"x_max":576,"o":"m 0 61 q 10 204 0 119 q 38 382 21 289 q 77 567 56 475 q 121 731 99 658 q 163 850 143 804 q 199 896 183 896 q 229 890 208 896 q 269 875 250 883 q 304 857 289 867 q 319 839 319 847 q 317 832 319 835 q 307 820 311 825 q 300 808 303 815 q 266 732 283 779 q 231 628 249 685 q 197 506 214 571 q 167 376 181 440 q 199 440 182 408 q 236 500 215 471 q 281 552 257 531 q 332 574 306 574 q 374 560 354 574 q 410 528 394 547 q 436 488 426 510 q 446 450 446 467 q 425 327 446 392 q 371 201 404 263 q 463 291 419 238 q 536 419 507 344 q 547 430 540 428 q 561 429 554 432 q 572 419 568 426 q 572 404 576 413 q 473 243 536 314 q 324 126 410 172 q 238 35 282 71 q 156 0 193 0 q 131 8 144 0 q 108 24 117 17 q 108 8 108 17 q 92 0 107 0 q 63 6 79 0 q 33 19 47 11 q 10 39 19 28 q 0 61 0 50 m 268 474 q 193 344 226 411 q 144 225 164 286 q 114 100 124 164 q 156 107 133 103 q 204 119 179 111 q 243 185 224 146 q 278 268 263 224 q 303 360 293 313 q 317 454 314 408 q 303 494 318 486 q 268 474 288 501 z "},"c":{"ha":371,"x_min":-6,"x_max":504,"o":"m 182 0 q 56 42 99 0 q 4 145 14 83 q 11 280 -6 207 q 62 415 28 353 q 141 518 96 476 q 233 560 186 560 q 282 549 258 560 q 324 522 306 539 q 355 484 343 506 q 367 440 367 463 q 360 384 367 413 q 342 333 353 356 q 319 297 332 311 q 294 283 307 283 q 256 297 279 283 q 218 326 232 311 q 215 344 211 335 q 229 360 218 353 q 267 394 250 372 q 293 439 285 415 q 300 481 304 467 q 282 494 296 494 q 224 463 253 494 q 172 383 194 431 q 135 280 149 336 q 122 176 121 224 q 142 97 124 129 q 204 65 161 65 q 290 103 250 65 q 362 195 329 140 q 420 311 394 250 q 465 419 446 372 q 476 430 469 428 q 490 429 483 432 q 500 419 496 426 q 500 404 504 413 q 451 286 481 356 q 383 153 422 217 q 294 44 344 89 q 182 0 244 0 z "},"d":{"ha":486,"x_min":-1,"x_max":613,"o":"m 263 136 q 263 147 263 142 q 264 158 264 151 q 231 98 249 126 q 194 48 214 69 q 151 13 174 26 q 103 0 128 0 q 27 34 50 0 q 1 113 4 68 q 10 234 -1 168 q 44 362 21 300 q 105 474 68 424 q 190 551 142 525 q 225 560 207 561 q 260 553 243 560 q 294 538 278 547 q 326 522 311 529 q 360 665 343 597 q 396 783 378 732 q 429 865 414 835 q 457 896 444 896 q 488 890 467 896 q 528 875 508 883 q 564 857 549 867 q 579 839 579 847 q 575 832 579 833 q 566 820 571 825 q 558 808 561 815 q 503 672 532 761 q 449 480 475 583 q 403 274 424 376 q 374 99 383 172 q 396 83 368 53 q 453 159 426 115 q 502 249 479 203 q 543 339 525 294 q 574 418 561 383 q 585 429 578 426 q 599 429 592 432 q 609 419 606 426 q 610 404 613 413 q 585 342 600 381 q 549 258 569 303 q 503 167 528 213 q 450 84 478 121 q 392 24 422 47 q 333 0 363 0 q 289 14 304 0 q 267 48 274 28 q 261 92 261 68 q 263 136 261 115 m 285 496 q 222 460 250 496 q 172 370 193 424 q 138 258 151 317 q 119 153 124 199 q 124 97 117 117 q 147 76 132 76 q 199 121 171 76 q 244 208 222 157 q 285 310 267 258 q 299 391 292 350 q 315 474 307 432 q 285 496 306 496 z "},"e":{"ha":388,"x_min":-1,"x_max":507,"o":"m 185 0 q 83 24 122 0 q 24 88 43 49 q 1 177 4 126 q 10 280 -1 228 q 44 383 22 332 q 97 472 67 433 q 163 535 128 511 q 236 560 199 560 q 281 548 256 560 q 329 517 307 536 q 367 474 351 497 q 382 428 382 450 q 357 338 382 379 q 293 265 332 296 q 209 216 254 233 q 124 199 164 199 q 140 104 121 143 q 207 65 158 65 q 288 103 249 65 q 362 195 328 140 q 423 311 396 250 q 468 419 450 372 q 478 430 471 428 q 492 429 486 432 q 503 419 499 426 q 503 404 507 413 q 453 283 483 353 q 383 151 424 214 q 293 44 343 88 q 185 0 243 0 m 240 476 q 201 434 219 461 q 167 374 182 407 q 141 303 151 340 q 126 231 131 265 q 183 250 154 231 q 234 301 211 269 q 271 372 257 332 q 285 454 285 413 q 270 483 285 476 q 240 476 256 489 z "},"f":{"ha":281,"x_min":-42,"x_max":407,"o":"m 176 278 q 233 296 203 282 q 289 329 263 310 q 336 372 315 349 q 367 419 357 396 q 378 430 371 428 q 392 429 386 432 q 403 419 399 426 q 403 404 407 413 q 365 347 390 375 q 308 297 339 319 q 242 258 276 274 q 176 239 207 243 q 191 128 186 186 q 195 13 196 71 q 187 -100 194 -44 q 167 -203 179 -156 q 147 -260 160 -231 q 117 -308 135 -290 q 84 -329 100 -326 q 50 -332 68 -332 q 22 -328 38 -332 q -8 -318 6 -325 q -32 -301 -22 -311 q -42 -281 -42 -292 q -33 -162 -42 -229 q -7 40 -24 -65 q 32 251 10 146 q 82 458 54 357 q 142 650 110 560 q 173 722 158 696 q 199 749 188 749 q 228 742 208 749 q 269 728 249 736 q 304 710 289 719 q 319 692 319 700 q 317 685 319 688 q 307 673 311 678 q 299 661 303 668 q 268 594 283 635 q 237 502 253 553 q 206 394 221 451 q 176 278 190 336 m 96 -272 q 104 -265 100 -272 q 112 -247 108 -257 q 119 -228 115 -237 q 124 -214 122 -218 q 156 -30 151 -126 q 150 157 161 67 q 117 -24 132 67 q 93 -207 103 -115 q 96 -272 86 -272 z "},"g":{"ha":460,"x_min":-29,"x_max":586,"o":"m 243 153 q 174 45 213 90 q 89 0 135 0 q 24 24 47 0 q -4 86 0 49 q 0 213 -11 143 q 38 348 11 282 q 103 469 64 414 q 194 551 143 524 q 230 560 211 561 q 268 551 249 558 q 303 535 286 544 q 338 518 319 526 q 340 526 339 521 q 344 536 342 532 q 364 554 351 554 q 413 540 385 554 q 454 514 440 525 q 460 501 461 508 q 454 486 458 493 q 442 451 446 469 q 399 304 418 378 q 365 165 381 231 l 363 153 q 467 269 418 204 q 547 418 515 333 q 558 429 550 426 q 572 429 565 432 q 582 420 578 426 q 582 406 586 414 q 479 224 542 300 q 347 89 417 147 q 314 -46 332 21 q 272 -178 296 -112 q 206 -290 247 -247 q 85 -332 165 -332 q 35 -321 60 -332 q -6 -287 10 -310 q -25 -242 -21 -267 q -24 -192 -29 -217 q -8 -145 -19 -168 q 21 -104 4 -122 q 63 -64 39 -82 q 111 -29 86 -46 q 162 3 136 -12 q 210 33 188 18 q 226 92 218 63 q 243 153 235 122 m 288 496 q 221 457 251 496 q 167 362 190 418 q 128 244 143 306 q 111 138 114 182 q 110 121 111 132 q 111 99 110 110 q 117 81 113 89 q 129 72 121 72 q 164 95 146 72 q 200 153 182 118 q 235 233 218 189 q 267 317 253 276 q 292 392 281 358 q 308 442 303 425 q 315 460 311 451 q 321 478 318 469 q 288 496 310 496 m 71 -267 q 108 -249 89 -267 q 140 -194 128 -232 q 166 -115 153 -158 q 193 -25 179 -72 q 140 -60 169 -42 q 85 -103 111 -79 q 43 -154 60 -126 q 28 -215 26 -182 q 40 -250 29 -233 q 71 -267 50 -267 z "},"h":{"ha":465,"x_min":0,"x_max":592,"o":"m 236 94 q 269 285 246 185 q 325 472 293 385 q 255 383 289 433 q 193 279 221 333 q 144 170 165 225 q 114 68 124 115 q 110 42 111 56 q 108 17 108 29 q 92 0 108 0 q 63 6 79 0 q 33 19 47 11 q 10 39 19 28 q 0 61 0 50 q 10 208 0 122 q 38 386 21 293 q 77 570 56 479 q 121 733 99 661 q 163 851 143 806 q 199 896 183 896 q 229 890 208 896 q 269 875 250 883 q 304 857 289 867 q 319 839 319 847 q 317 832 319 835 q 307 820 311 825 q 300 808 303 815 q 258 710 279 772 q 215 574 236 649 q 176 419 194 500 q 143 264 157 339 q 235 422 182 347 q 344 544 288 497 q 371 554 356 554 q 394 550 379 554 q 426 538 410 546 q 453 522 442 531 q 465 503 465 513 q 464 495 465 499 q 461 488 463 492 q 453 471 457 479 q 446 453 449 463 q 414 359 429 408 q 386 261 399 310 q 364 167 374 213 q 347 86 354 122 q 368 76 343 54 q 426 152 399 108 q 478 243 454 196 q 520 336 501 290 q 553 418 539 382 q 563 429 556 426 q 577 429 571 432 q 588 419 583 426 q 588 404 592 413 q 563 342 578 381 q 526 258 547 303 q 481 167 506 213 q 428 84 456 121 q 370 24 400 47 q 311 0 340 0 q 278 8 293 0 q 253 31 264 17 q 238 61 243 44 q 236 94 233 78 z "},"i":{"ha":232,"x_min":0,"x_max":369,"o":"m 1 94 q 5 121 4 108 q 8 147 6 133 q 51 349 24 246 q 115 536 79 453 q 136 554 124 554 q 159 550 146 554 q 185 540 172 546 q 208 526 197 533 q 225 514 218 519 q 229 494 236 506 q 219 471 222 482 q 185 374 201 425 q 156 271 169 322 q 131 172 142 219 q 114 86 121 124 q 118 69 111 71 q 133 76 125 68 q 193 152 165 108 q 244 243 221 196 q 285 336 267 290 q 318 418 304 382 q 329 429 322 426 q 343 429 336 432 q 353 419 350 426 q 354 404 357 413 q 329 342 344 381 q 293 258 314 303 q 247 167 272 213 q 194 84 222 121 q 137 24 167 47 q 78 0 107 0 q 45 8 60 0 q 20 31 31 17 q 5 61 10 44 q 1 94 0 78 m 225 804 q 258 843 244 843 q 295 831 269 842 q 340 806 321 819 q 346 749 369 786 q 319 707 336 733 q 282 656 301 681 q 244 612 263 631 q 213 593 225 593 q 178 620 183 592 q 182 685 174 649 q 204 757 190 722 q 225 804 218 792 z "},"j":{"ha":238,"x_min":-251,"x_max":375,"o":"m 122 536 q 142 554 129 554 q 190 540 163 554 q 232 514 218 525 q 238 501 239 508 q 232 486 236 493 q 218 451 225 472 q 177 304 196 378 q 143 165 158 231 l 140 153 q 244 269 196 204 q 325 418 293 333 q 335 429 328 426 q 349 429 343 432 q 360 420 356 426 q 360 406 364 414 q 257 224 319 300 q 125 89 194 147 q 92 -46 110 21 q 50 -178 74 -112 q -16 -290 25 -247 q -137 -332 -57 -332 q -188 -321 -164 -332 q -228 -287 -212 -310 q -247 -242 -243 -267 q -247 -192 -251 -217 q -230 -145 -242 -168 q -201 -104 -218 -122 q -160 -64 -183 -82 q -111 -29 -136 -46 q -60 3 -86 -12 q -12 33 -35 18 q 35 235 11 133 q 86 435 58 336 q 103 486 94 461 q 122 536 111 511 m -151 -267 q -114 -249 -133 -267 q -82 -194 -94 -232 q -56 -115 -69 -158 q -29 -25 -43 -72 q -82 -60 -53 -42 q -137 -103 -111 -79 q -180 -154 -162 -126 q -194 -215 -197 -182 q -183 -250 -193 -233 q -151 -267 -172 -267 m 231 804 q 264 843 253 843 q 301 831 276 842 q 346 806 326 819 q 351 749 375 786 q 324 707 342 733 q 288 656 307 681 q 249 612 268 631 q 218 593 231 593 q 185 620 189 592 q 189 685 181 649 q 210 757 197 722 q 231 804 224 792 z "},"k":{"ha":443,"x_min":0,"x_max":576,"o":"m 311 471 q 242 372 271 426 q 186 265 213 318 q 227 299 204 278 q 271 347 250 321 q 309 401 292 372 q 333 458 326 431 q 333 481 338 472 q 311 471 329 490 m 303 521 q 345 552 322 540 q 389 550 368 564 q 419 524 406 540 q 440 488 432 507 q 448 442 451 464 q 429 399 444 421 q 365 324 401 360 q 283 264 328 289 q 288 222 283 253 q 302 156 293 190 q 324 94 311 121 q 354 68 338 68 q 369 76 358 68 q 425 152 400 108 q 470 243 450 196 q 506 336 490 290 q 536 418 522 382 q 547 429 540 426 q 561 429 554 432 q 572 419 568 426 q 572 404 576 413 q 549 342 563 381 q 515 258 535 303 q 474 167 496 213 q 425 84 451 121 q 370 24 399 47 q 313 0 342 0 q 255 24 281 0 q 210 81 229 47 q 181 154 192 115 q 167 224 169 193 q 114 68 128 140 q 110 42 111 56 q 108 17 108 29 q 92 0 108 0 q 63 6 79 0 q 33 19 47 11 q 10 39 19 28 q 0 61 0 50 q 10 208 0 122 q 38 386 21 293 q 77 570 56 479 q 121 733 99 661 q 163 851 143 806 q 199 896 183 896 q 229 890 208 896 q 269 875 250 883 q 304 857 289 867 q 319 839 319 847 q 317 832 319 835 q 307 820 311 825 q 300 808 303 815 q 258 710 279 772 q 215 574 236 649 q 176 419 194 500 q 143 264 157 339 q 213 399 175 331 q 303 521 250 468 z "},"l":{"ha":228,"x_min":1,"x_max":354,"o":"m 3 136 q 22 285 8 203 q 51 452 35 368 q 88 616 68 536 q 128 758 108 696 q 167 858 149 821 q 199 896 185 896 q 228 890 208 896 q 269 875 249 883 q 304 857 289 867 q 319 839 319 847 q 317 832 319 835 q 307 820 311 825 q 299 808 303 815 q 244 672 272 761 q 190 480 215 583 q 144 274 164 376 q 114 99 124 172 q 117 72 111 75 q 138 83 122 68 q 194 159 168 115 q 243 249 221 203 q 283 339 265 294 q 314 418 301 383 q 325 429 318 426 q 339 429 332 432 q 350 419 346 426 q 350 404 354 413 q 325 342 340 381 q 289 258 310 303 q 243 167 268 213 q 190 84 218 121 q 133 24 163 47 q 74 0 104 0 q 29 14 44 0 q 8 48 14 28 q 1 92 1 68 q 3 136 1 115 z "},"m":{"ha":693,"x_min":0,"x_max":819,"o":"m 0 67 q 15 183 4 121 q 42 306 26 244 q 76 427 57 368 q 117 536 94 486 q 136 554 124 554 q 185 540 157 554 q 226 514 213 525 q 231 494 238 506 q 219 471 224 482 q 183 364 200 421 q 151 250 165 307 q 192 333 169 290 q 240 417 215 376 q 291 490 265 457 q 342 544 317 524 q 368 554 351 554 q 386 551 374 554 q 412 543 399 549 q 437 531 425 538 q 456 517 449 525 q 461 502 463 508 q 457 488 460 496 q 415 369 433 429 q 382 250 397 310 q 423 333 400 290 q 471 417 446 376 q 522 490 496 457 q 572 544 547 524 q 599 554 583 554 q 622 550 607 554 q 653 538 638 546 q 681 522 669 531 q 693 503 693 513 q 692 495 693 499 q 689 488 690 492 q 680 471 683 479 q 674 453 676 463 q 642 359 657 408 q 614 261 626 310 q 591 167 601 213 q 575 86 581 122 q 578 68 572 71 q 596 76 585 65 q 654 152 626 108 q 705 243 682 196 q 747 336 728 290 q 779 418 765 382 q 790 429 783 426 q 804 429 797 432 q 815 419 811 426 q 815 404 819 413 q 790 342 806 381 q 754 258 775 303 q 708 167 733 213 q 656 84 683 121 q 598 24 628 47 q 539 0 568 0 q 479 23 503 0 q 458 74 456 46 q 473 169 464 118 q 494 274 482 221 q 522 377 507 326 q 551 472 536 428 q 504 410 529 447 q 456 331 479 374 q 411 242 432 288 q 374 153 390 196 q 348 75 358 111 q 336 15 338 39 q 330 2 335 4 q 318 0 325 0 q 290 6 306 0 q 262 22 275 13 q 240 44 249 32 q 231 67 231 56 q 263 268 239 160 q 322 471 288 376 q 250 370 288 433 q 181 240 213 307 q 128 112 150 174 q 104 15 107 50 q 99 2 104 4 q 88 0 94 0 q 60 6 75 0 q 31 22 44 13 q 9 44 18 32 q 0 67 0 56 z "},"n":{"ha":461,"x_min":0,"x_max":588,"o":"m 0 67 q 15 183 4 121 q 42 306 26 244 q 76 427 57 368 q 117 536 94 486 q 136 554 124 554 q 159 550 146 554 q 185 540 172 546 q 209 526 199 533 q 226 514 219 519 q 231 494 238 506 q 219 471 224 482 q 183 364 200 421 q 151 250 165 307 q 192 333 169 290 q 240 417 215 376 q 291 490 265 457 q 342 544 317 524 q 368 554 351 554 q 390 550 375 554 q 422 538 406 546 q 449 522 438 531 q 461 503 461 513 q 457 488 461 496 q 449 471 453 479 q 442 453 446 463 q 410 359 425 408 q 383 261 396 310 q 360 167 371 213 q 344 86 350 122 q 347 68 342 71 q 364 76 353 65 q 424 152 396 108 q 474 243 451 196 q 516 336 497 290 q 549 418 535 382 q 560 429 553 426 q 574 429 567 432 q 584 419 581 426 q 585 404 588 413 q 560 342 575 381 q 524 258 544 303 q 478 167 503 213 q 425 84 453 121 q 367 24 397 47 q 308 0 338 0 q 249 23 272 0 q 228 74 225 46 q 242 169 233 118 q 264 274 251 221 q 291 377 276 326 q 321 472 306 428 q 273 410 297 447 q 225 331 249 374 q 181 242 201 288 q 143 153 160 196 q 116 75 126 111 q 104 15 106 39 q 99 2 104 4 q 88 0 94 0 q 60 6 75 0 q 31 22 44 13 q 9 44 18 32 q 0 67 0 56 z "},"o":{"ha":460,"x_min":0,"x_max":586,"o":"m 132 97 q 146 100 140 100 q 186 107 169 103 q 226 118 203 111 q 261 182 244 144 q 290 260 278 219 q 308 340 301 300 q 315 414 315 381 q 307 467 315 449 q 284 490 299 486 q 251 486 269 494 q 215 457 233 478 q 164 374 186 424 q 131 273 142 325 q 119 173 119 221 q 132 97 119 125 m 188 551 q 238 557 211 563 q 286 536 265 551 q 347 526 318 536 q 398 499 376 515 q 432 460 419 482 q 444 414 444 438 q 434 317 444 367 q 404 219 424 267 q 487 310 450 260 q 547 419 524 361 q 558 430 551 428 q 572 429 565 432 q 583 419 579 426 q 583 404 586 413 q 367 146 515 239 q 275 41 328 82 q 160 0 222 0 q 92 17 122 0 q 42 59 63 33 q 11 115 22 85 q 0 172 0 144 q 13 281 0 224 q 50 390 26 338 q 108 485 74 443 q 188 551 143 528 z "},"p":{"ha":488,"x_min":-35,"x_max":614,"o":"m -35 -271 q -26 -127 -35 -212 q -3 51 -18 -42 q 29 236 11 144 q 66 401 47 328 q 103 519 85 474 q 136 565 121 565 q 167 559 146 565 q 207 544 188 553 q 242 526 226 536 q 257 507 257 515 q 254 500 257 506 q 245 490 250 494 q 238 478 240 485 q 213 426 225 456 q 190 358 201 396 q 235 434 211 397 q 283 506 258 471 q 328 552 304 533 q 375 571 351 571 q 418 558 397 571 q 454 528 439 546 q 479 488 469 510 q 489 450 489 467 q 465 327 489 392 q 410 201 442 263 q 501 291 458 238 q 575 419 544 344 q 586 430 579 428 q 600 429 593 432 q 610 419 607 426 q 611 404 614 413 q 511 243 575 314 q 361 126 447 172 q 276 35 321 71 q 194 0 231 0 q 147 8 167 0 q 115 26 126 15 q 98 -79 106 -28 q 85 -176 90 -131 q 76 -257 79 -221 q 74 -315 74 -293 q 57 -332 74 -332 q 28 -326 44 -332 q -1 -312 13 -321 q -25 -293 -15 -304 q -35 -271 -35 -282 m 318 482 q 206 310 251 403 q 133 121 161 218 q 130 105 131 113 q 126 89 129 97 q 163 100 140 97 q 199 107 179 101 q 242 119 219 113 q 282 185 261 146 q 319 268 303 224 q 347 360 336 313 q 361 454 358 408 q 340 494 361 497 q 318 482 328 494 z "},"q":{"ha":472,"x_min":-4,"x_max":592,"o":"m 172 -281 q 186 -107 172 -211 q 224 107 200 -3 q 163 31 196 63 q 94 0 131 0 q 30 24 53 0 q 3 86 7 49 q 6 213 -4 143 q 43 348 17 282 q 109 469 69 414 q 200 551 149 524 q 231 560 214 560 q 288 546 260 560 q 340 519 315 532 q 371 554 357 554 q 401 548 381 554 q 441 533 421 542 q 476 515 461 525 q 492 496 492 504 q 489 490 492 493 q 471 467 478 476 q 440 396 456 439 q 408 301 424 353 q 376 189 392 249 q 346 69 360 129 q 415 143 385 106 q 470 223 446 181 q 514 313 494 265 q 553 418 533 361 q 563 429 556 426 q 576 430 569 432 q 588 421 583 428 q 589 406 592 414 q 545 290 568 343 q 494 190 522 238 q 429 101 465 143 q 346 18 393 58 q 344 -62 346 -19 q 339 -149 343 -106 q 326 -233 335 -192 q 303 -311 317 -275 q 288 -326 299 -321 q 264 -332 276 -332 q 235 -328 251 -332 q 206 -318 219 -325 q 182 -301 192 -311 q 172 -281 172 -292 m 324 482 q 294 496 314 496 q 227 457 258 496 q 172 362 196 418 q 134 244 149 306 q 117 138 119 182 q 116 121 117 132 q 117 99 115 110 q 122 81 118 89 q 135 72 126 72 q 167 92 150 72 q 201 144 185 113 q 235 215 218 175 q 265 293 251 254 q 295 399 281 351 q 324 482 310 447 z "},"r":{"ha":451,"x_min":0,"x_max":576,"o":"m 0 67 q 15 183 4 121 q 42 306 26 244 q 76 427 57 368 q 117 536 94 486 q 136 554 124 554 q 159 550 146 554 q 185 540 172 546 q 209 526 199 533 q 226 514 219 519 q 231 494 238 506 q 219 471 224 482 q 183 364 200 421 q 151 250 165 307 q 192 333 169 290 q 240 417 215 376 q 291 490 265 457 q 342 544 317 524 q 368 554 351 554 q 385 551 374 554 q 409 544 396 549 q 434 533 422 539 q 454 518 446 526 q 463 494 468 504 q 446 475 457 483 q 392 399 410 444 q 372 317 375 353 q 379 278 371 290 q 399 267 388 267 q 442 285 421 267 q 481 328 463 303 q 514 379 499 353 q 539 422 529 406 q 552 431 544 431 q 566 428 560 432 q 574 417 572 424 q 572 401 576 410 q 544 355 561 382 q 508 301 528 328 q 465 251 488 274 q 417 219 442 228 q 376 217 399 213 q 331 233 353 221 q 294 263 310 244 q 275 306 278 282 q 285 380 272 338 q 313 454 297 422 q 315 463 317 464 q 308 457 313 463 q 240 355 275 417 q 175 229 204 293 q 126 107 146 165 q 104 15 107 49 q 99 2 104 4 q 88 0 94 0 q 60 6 75 0 q 31 22 44 13 q 9 44 18 32 q 0 67 0 56 z "},"s":{"ha":346,"x_min":-28,"x_max":472,"o":"m 75 -8 q 19 4 42 -8 q -16 35 -4 17 q -27 77 -28 54 q -12 121 -26 100 q 28 158 3 147 q 83 172 54 169 q 130 176 107 175 q 172 182 153 178 q 150 240 168 213 q 113 294 132 267 q 79 352 94 321 q 64 424 64 383 q 77 483 64 457 q 112 528 90 510 q 160 556 133 546 q 217 565 188 565 q 255 553 235 565 q 292 524 275 542 q 319 484 308 506 q 331 444 331 463 q 326 419 331 433 q 313 393 321 406 q 297 372 306 381 q 281 364 288 364 q 232 376 257 364 q 207 399 207 388 q 210 404 207 401 q 240 426 228 404 q 253 468 253 449 q 247 490 253 481 q 231 499 242 499 q 208 489 218 499 q 192 465 199 479 q 183 438 186 451 q 181 414 181 424 q 193 362 181 386 q 222 315 206 338 q 256 271 239 293 q 285 225 274 249 q 378 306 343 257 q 433 418 413 356 q 443 429 436 426 q 457 430 450 432 q 468 421 464 428 q 469 406 472 414 q 401 274 443 326 q 297 188 360 221 q 284 106 303 142 q 232 44 265 69 q 157 5 199 18 q 75 -8 115 -8 m 171 142 q 117 137 149 136 q 63 131 86 138 q 31 109 39 125 q 26 77 22 93 q 46 52 31 61 q 86 51 61 43 q 139 88 115 63 q 171 142 163 114 z "},"t":{"ha":268,"x_min":-32,"x_max":394,"o":"m 299 739 q 288 723 292 731 q 281 706 283 715 q 273 685 276 694 q 267 664 269 675 q 328 660 299 664 q 371 647 357 657 q 377 639 374 646 q 383 623 381 632 q 386 606 385 614 q 388 592 388 597 q 382 576 388 581 l 378 576 q 312 590 347 588 q 244 592 276 592 q 209 463 226 531 q 177 331 192 396 q 151 206 163 265 q 133 99 139 146 q 135 72 131 75 q 156 83 140 68 q 216 159 186 115 q 273 249 246 203 q 322 339 300 294 q 356 418 343 383 q 367 429 360 426 q 381 429 374 432 q 391 419 388 426 q 392 404 394 413 q 365 342 382 381 q 324 258 347 303 q 272 167 300 213 q 213 84 243 121 q 151 24 182 47 q 93 0 121 0 q 49 14 64 0 q 27 48 33 28 q 21 92 21 68 q 22 136 21 115 q 35 239 26 183 q 55 353 43 294 q 80 471 67 411 q 107 588 93 531 l 76 588 q 51 588 67 588 q 21 592 36 589 q -7 602 6 594 q -25 624 -19 610 q -12 640 -32 640 q 56 644 22 640 q 122 651 89 647 q 136 706 129 679 q 154 757 143 732 q 194 808 175 808 q 224 803 204 808 q 261 788 243 797 q 293 769 279 779 q 307 751 307 760 q 303 744 307 749 q 301 742 301 743 q 299 739 300 740 z "},"u":{"ha":475,"x_min":0,"x_max":601,"o":"m 246 94 q 250 121 249 108 q 253 147 251 133 q 254 152 254 150 q 256 157 254 154 q 185 47 224 93 q 100 0 147 0 q 62 9 81 0 q 29 32 43 18 q 8 63 15 46 q 1 94 0 79 q 5 121 4 108 q 8 147 6 133 q 51 349 24 246 q 115 536 79 453 q 136 554 124 554 q 159 550 146 554 q 185 540 172 546 q 208 526 197 533 q 225 514 218 519 q 229 494 236 506 q 218 471 222 482 q 188 385 203 431 q 161 294 174 340 q 138 204 149 249 q 121 122 128 160 q 122 85 115 99 q 139 72 128 72 q 174 95 156 72 q 212 153 193 118 q 249 233 231 189 q 282 317 267 276 q 308 392 297 358 q 325 442 319 425 q 342 490 333 467 q 360 536 350 514 q 381 554 368 554 q 403 550 390 554 q 429 540 417 546 q 452 526 442 533 q 469 514 463 519 q 474 494 481 506 q 464 471 467 482 q 430 374 446 425 q 400 271 414 322 q 376 172 386 219 q 358 86 365 124 q 363 69 356 71 q 379 76 369 68 q 438 152 410 108 q 488 243 465 196 q 530 336 511 290 q 563 418 549 382 q 574 429 567 426 q 588 429 581 432 q 598 419 594 426 q 599 404 601 413 q 574 342 589 381 q 538 258 558 303 q 492 167 517 213 q 439 84 467 121 q 381 24 411 47 q 322 0 351 0 q 265 31 286 0 q 246 94 243 61 z "},"v":{"ha":429,"x_min":14,"x_max":556,"o":"m 389 546 q 426 504 414 531 q 428 454 438 478 q 389 369 411 415 q 340 275 367 324 q 381 269 360 265 q 446 312 414 276 q 518 421 478 347 q 530 431 522 429 q 544 428 538 432 q 553 418 550 425 q 551 403 556 411 q 467 280 507 321 q 388 232 428 239 q 322 242 349 225 q 256 129 290 183 q 188 35 221 75 q 163 11 178 22 q 133 0 149 0 q 97 6 118 0 q 58 23 76 13 q 26 48 39 33 q 14 79 14 63 q 17 192 14 133 q 28 311 21 251 q 45 428 35 371 q 69 535 56 485 q 93 556 76 556 q 141 547 114 556 q 182 528 168 538 q 188 508 193 521 q 181 485 183 494 q 158 390 169 443 q 138 281 147 336 q 121 174 128 225 q 113 85 114 122 q 115 73 111 75 q 125 81 118 71 q 163 140 143 106 q 203 212 183 175 q 241 285 224 249 q 274 351 258 322 q 290 437 275 389 q 342 539 304 485 q 364 553 351 554 q 389 546 376 553 z "},"w":{"ha":633,"x_min":14,"x_max":760,"o":"m 593 546 q 630 503 619 531 q 632 454 640 475 q 594 369 615 415 q 546 275 572 324 q 585 269 563 265 q 650 312 618 276 q 722 421 682 347 q 734 431 726 429 q 748 428 742 432 q 757 418 754 425 q 756 403 760 411 q 672 280 711 321 q 592 232 632 239 q 526 242 553 225 q 460 129 494 183 q 393 35 425 75 q 368 11 382 22 q 338 0 354 0 q 310 4 325 0 q 279 16 294 8 q 251 33 264 24 q 232 51 239 42 q 222 85 222 64 q 224 128 221 107 q 177 49 203 88 q 128 0 151 11 q 92 6 111 0 q 55 23 72 13 q 26 48 38 33 q 14 79 14 63 q 17 192 14 133 q 28 311 21 251 q 45 428 35 371 q 69 535 56 485 q 93 556 76 556 q 141 547 114 556 q 182 528 168 538 q 188 508 193 521 q 181 485 183 494 q 158 392 169 444 q 135 287 146 340 q 118 182 125 233 q 110 93 111 131 q 115 73 110 78 q 131 79 119 68 q 183 159 157 103 q 242 286 210 215 q 270 417 254 353 q 301 535 286 481 q 325 556 308 556 q 373 547 346 556 q 414 528 400 538 q 420 508 425 521 q 413 485 415 494 q 381 389 397 443 q 352 280 365 335 q 328 174 339 225 q 317 85 318 122 q 329 81 317 64 q 367 140 347 106 q 408 212 388 175 q 445 285 428 249 q 478 351 463 322 q 497 437 481 389 q 549 539 513 485 q 569 551 556 550 q 593 546 582 553 z "},"x":{"ha":458,"x_min":-11,"x_max":585,"o":"m 306 0 q 256 14 282 0 q 218 58 231 28 q 195 119 207 86 q 172 186 183 151 q 147 154 160 171 q 119 121 133 138 q 69 58 94 89 q 24 -10 44 26 q 13 -18 17 -18 q 3 -11 10 -18 q -8 8 -4 -4 q -10 32 -11 21 q 10 83 -7 56 q 42 132 26 110 q 88 198 61 160 q 146 278 115 236 q 132 338 139 308 q 119 394 125 367 q 117 388 117 389 q 106 376 114 379 q 92 376 99 374 q 82 384 86 378 q 81 400 78 390 q 94 456 88 424 q 97 515 101 489 q 111 543 93 535 q 135 550 121 547 q 163 553 149 553 q 188 554 176 554 q 206 553 200 554 q 220 543 218 550 q 221 528 222 536 q 221 515 221 521 q 222 503 221 510 q 231 454 226 479 q 240 403 235 429 q 298 473 268 439 q 360 539 328 507 q 404 575 383 563 q 423 577 413 579 q 444 569 433 575 q 463 554 454 563 q 475 539 471 546 q 478 519 483 525 q 465 508 472 514 q 455 499 460 504 q 444 490 450 494 q 353 394 397 443 q 267 296 310 344 q 297 182 282 236 q 328 88 313 128 q 342 69 332 72 q 368 83 353 67 q 425 158 399 115 q 474 248 451 201 q 514 339 496 294 q 546 418 532 383 q 557 429 550 426 q 571 429 564 432 q 581 419 578 426 q 582 404 585 413 q 557 342 572 381 q 521 258 542 303 q 475 167 500 213 q 422 84 450 121 q 365 24 394 47 q 306 0 335 0 z "},"y":{"ha":486,"x_min":-1,"x_max":613,"o":"m 371 536 q 390 554 378 554 q 439 540 411 554 q 481 514 467 525 q 486 501 488 508 q 481 486 485 493 q 467 451 474 472 q 426 304 444 378 q 392 165 407 231 l 389 153 q 492 269 444 204 q 574 418 540 333 q 584 429 576 426 q 598 429 592 432 q 608 420 604 426 q 608 406 613 414 q 506 224 568 300 q 374 89 443 147 q 340 -46 358 21 q 297 -178 321 -112 q 233 -290 274 -247 q 110 -332 192 -332 q 60 -321 85 -332 q 21 -287 36 -310 q 2 -242 6 -267 q 3 -193 -1 -218 q 19 -145 7 -168 q 46 -104 31 -122 q 89 -64 65 -82 q 138 -29 113 -46 q 188 3 163 -12 q 236 33 214 18 q 250 94 243 64 q 264 156 257 124 q 195 46 233 92 q 110 0 157 0 q 72 9 90 0 q 39 32 53 18 q 17 63 25 46 q 11 94 10 79 q 15 121 14 108 q 18 147 17 133 q 61 349 33 246 q 125 536 89 453 q 146 554 133 554 q 169 550 156 554 q 194 540 182 546 q 217 526 207 533 q 235 514 228 519 q 239 494 246 506 q 229 471 232 482 q 199 385 214 431 q 172 294 185 340 q 149 204 160 249 q 131 122 139 160 q 131 85 125 99 q 150 72 138 72 q 199 112 172 72 q 250 206 225 151 q 296 319 275 261 q 329 414 317 378 q 332 424 331 419 q 335 435 333 429 q 351 486 342 461 q 371 536 360 511 m 97 -267 q 134 -249 115 -267 q 167 -194 153 -232 q 192 -115 179 -158 q 219 -25 206 -72 q 167 -60 196 -42 q 112 -103 138 -79 q 69 -154 86 -126 q 54 -215 51 -182 q 67 -250 56 -233 q 97 -267 78 -267 z "},"z":{"ha":432,"x_min":-50,"x_max":558,"o":"m 126 93 q 98 86 111 89 q 71 83 85 83 q 28 95 42 83 q 16 121 15 107 q 31 147 17 135 q 74 158 46 158 q 88 158 81 158 q 101 156 94 157 q 174 209 139 175 q 235 285 208 243 q 277 372 261 326 q 293 458 293 417 q 203 417 249 446 q 118 358 158 388 q 101 344 111 353 q 75 349 90 336 q 54 383 64 360 q 39 425 44 406 q 40 447 35 440 q 58 460 44 453 q 195 520 122 492 q 343 549 268 549 q 364 537 353 549 q 384 508 375 525 q 399 472 393 490 q 404 439 404 453 q 381 339 401 388 q 331 249 361 290 q 263 174 300 207 q 189 121 226 140 q 213 99 201 111 q 236 68 225 86 q 404 222 332 138 q 519 418 476 307 q 530 429 522 426 q 544 429 538 432 q 554 420 550 426 q 554 406 558 414 q 431 196 508 283 q 254 35 354 108 q 283 -85 282 -21 q 258 -205 283 -150 q 183 -296 233 -260 q 63 -332 133 -332 q 12 -321 36 -332 q -28 -287 -12 -310 q -47 -242 -43 -267 q -46 -192 -50 -217 q -30 -145 -42 -168 q -3 -104 -18 -122 q 76 -37 32 -64 q 163 18 119 -10 q 149 60 158 42 q 126 93 139 78 m 6 -206 q 27 -256 4 -239 q 81 -258 50 -274 q 123 -217 106 -246 q 151 -153 140 -187 q 167 -85 163 -119 q 169 -25 171 -50 q 118 -60 146 -42 q 65 -100 90 -78 q 24 -148 40 -122 q 6 -206 7 -174 z "},"{":{"ha":349,"x_min":13,"x_max":418,"o":"m 101 -79 q 47 -61 65 -78 q 24 -19 29 -44 q 22 36 18 7 q 31 92 25 65 l 103 431 q 83 427 93 429 q 61 425 72 425 q 26 438 40 425 q 15 469 13 450 q 71 510 22 510 q 94 508 79 510 q 115 503 108 506 l 185 835 q 196 888 190 863 q 213 932 201 913 q 243 963 224 951 q 297 975 263 974 q 334 976 318 976 q 371 976 350 976 q 400 972 388 978 q 415 949 413 967 q 418 924 418 938 q 417 899 418 911 q 410 889 414 890 q 401 890 407 888 q 380 895 392 894 q 357 896 368 896 l 307 896 l 235 546 q 179 451 221 478 q 193 336 210 410 l 119 1 q 134 1 126 1 q 150 0 142 0 q 185 -1 167 -1 q 214 4 203 0 q 226 -6 228 10 q 214 -56 224 -31 q 193 -76 207 -71 q 164 -79 179 -81 l 101 -79 l 101 -79 z "},"|":{"ha":388,"x_min":0,"x_max":332,"o":"m 0 -1 q 13 165 0 67 q 45 372 25 264 q 90 586 65 479 q 141 778 115 693 q 190 915 167 863 q 231 968 214 968 q 263 962 244 968 q 296 945 281 956 q 322 923 311 935 q 332 901 332 911 q 329 893 332 899 q 318 880 324 886 q 308 867 313 874 q 259 749 285 824 q 209 586 233 675 q 163 401 185 497 q 124 217 140 304 q 97 58 107 129 q 88 -53 88 -14 q 84 -68 88 -64 q 68 -72 81 -72 q 19 -51 38 -72 q 0 -1 0 -29 z "},"}":{"ha":376,"x_min":-42,"x_max":364,"o":"m 275 976 q 329 959 311 976 q 353 917 347 942 q 356 862 360 892 q 347 806 353 832 l 274 468 q 294 471 285 469 q 315 472 304 472 q 350 460 336 472 q 361 428 364 447 q 307 388 354 388 q 284 390 299 388 q 263 394 269 393 l 192 63 q 181 10 186 35 q 164 -35 175 -15 q 133 -65 153 -54 q 81 -78 114 -76 q 43 -78 58 -78 q 6 -79 28 -79 q -22 -74 -10 -79 q -37 -51 -35 -69 q -41 -26 -40 -40 q -39 -1 -42 -12 q -33 8 -37 7 q -25 8 -29 10 q -2 3 -14 4 q 21 1 10 1 l 71 1 l 143 351 q 164 410 150 388 q 197 446 178 432 q 185 563 168 489 l 258 897 l 228 897 q 192 898 210 899 q 163 893 175 897 q 154 893 158 892 q 150 903 150 894 q 155 927 151 914 q 164 953 158 940 q 185 973 171 968 q 214 976 199 978 l 275 976 l 275 976 z "},"~":{"ha":515,"x_min":40,"x_max":474,"o":"m 146 529 q 208 520 178 529 q 267 500 239 511 q 322 480 296 489 q 371 471 347 471 q 426 488 407 471 q 458 518 444 506 q 468 519 463 521 q 474 514 474 517 q 466 469 474 494 q 445 422 458 444 q 412 383 432 399 q 367 367 392 367 q 308 376 333 367 q 258 399 282 386 q 209 421 235 411 q 149 431 183 431 q 95 418 115 431 q 56 378 75 406 q 49 376 53 375 q 44 379 46 376 q 45 434 40 407 q 63 482 50 461 q 96 516 75 503 q 146 529 117 529 z "},"":{"ha":497,"x_min":-42,"x_max":622,"o":"m 178 278 q 207 395 192 338 q 238 503 222 453 q 269 595 254 554 q 300 664 285 636 q 318 686 308 676 q 321 693 321 692 q 306 712 321 701 q 270 731 290 722 q 229 745 250 739 q 199 751 208 751 q 173 724 188 751 q 142 653 158 697 q 83 460 110 563 q 33 253 56 358 q -6 41 11 147 q -33 -162 -24 -65 q -42 -282 -42 -232 q -32 -303 -42 -293 q -8 -319 -22 -312 q 22 -328 6 -325 q 50 -332 38 -332 q 85 -329 69 -332 q 117 -310 100 -326 q 149 -261 136 -290 q 168 -204 161 -232 q 188 -101 181 -157 q 196 13 194 -46 q 192 128 197 71 q 178 239 188 186 q 249 277 214 246 q 317 351 285 308 q 291 248 301 300 q 272 147 281 196 q 269 121 271 133 q 265 94 268 108 q 284 31 263 61 q 342 0 306 0 q 401 24 371 0 q 458 85 431 47 q 512 168 486 122 q 558 259 538 214 q 594 343 579 304 q 619 406 610 382 q 618 421 622 414 q 608 431 614 428 q 594 431 601 433 q 583 419 586 428 q 551 338 569 383 q 508 244 532 292 q 457 153 485 197 q 399 78 429 108 q 382 69 389 68 q 378 86 375 71 q 395 173 385 125 q 419 272 406 221 q 449 376 433 324 q 483 474 465 428 q 494 495 488 483 q 490 517 501 507 q 449 542 476 528 q 400 556 421 556 q 381 538 388 556 q 347 472 369 514 q 296 389 325 431 q 235 315 267 347 q 178 278 204 282 m 97 -274 q 94 -208 86 -274 q 118 -24 104 -115 q 151 158 132 67 q 156 -31 161 67 q 124 -215 151 -128 q 119 -228 122 -219 q 113 -248 117 -237 q 106 -266 110 -258 q 97 -274 101 -274 m 489 806 q 522 846 510 846 q 560 833 535 844 q 606 808 585 822 q 622 784 621 797 q 611 751 622 771 q 584 708 601 735 q 547 657 567 682 q 508 613 526 632 q 476 594 489 594 q 443 622 447 594 q 447 687 439 650 q 469 758 456 724 q 489 806 482 793 z "},"":{"ha":507,"x_min":-42,"x_max":633,"o":"m 178 278 q 219 297 199 282 q 258 334 239 313 q 295 382 278 356 q 326 435 313 408 q 364 606 343 522 q 406 754 385 689 q 445 859 426 819 q 478 899 464 899 q 508 892 488 899 q 549 878 529 886 q 583 860 568 869 q 599 842 599 850 q 596 835 599 836 q 587 823 592 828 q 579 811 582 818 q 524 674 553 764 q 469 481 494 585 q 423 276 443 378 q 393 100 403 174 q 396 72 390 76 q 417 85 401 68 q 474 160 447 117 q 522 249 500 203 q 563 340 544 296 q 594 419 581 385 q 605 431 597 428 q 619 431 613 433 q 629 421 625 428 q 631 406 633 414 q 606 343 621 382 q 569 259 590 304 q 523 168 549 214 q 469 85 497 122 q 412 24 442 47 q 353 0 382 0 q 308 14 324 0 q 287 49 293 28 q 281 93 281 69 q 282 138 281 117 q 292 231 285 181 q 308 335 299 281 q 248 272 281 299 q 178 239 215 246 q 192 128 188 186 q 196 13 197 71 q 188 -101 194 -46 q 168 -204 181 -157 q 147 -262 160 -232 q 117 -310 135 -292 q 85 -329 100 -326 q 50 -332 69 -332 q 22 -328 38 -332 q -8 -319 6 -325 q -32 -303 -22 -312 q -42 -282 -42 -293 q -33 -162 -42 -224 q -6 41 -24 -65 q 33 253 11 147 q 83 460 56 358 q 142 653 110 563 q 173 724 158 697 q 199 751 188 751 q 229 745 208 751 q 270 731 250 739 q 306 712 290 722 q 321 693 321 701 q 318 686 321 692 q 300 664 308 676 q 269 595 285 636 q 238 503 254 554 q 207 395 222 453 q 178 278 192 338 m 94 -208 q 93 -223 94 -212 q 92 -245 92 -233 q 92 -265 92 -257 q 97 -274 93 -274 q 106 -266 101 -274 q 113 -249 110 -258 q 119 -229 117 -239 q 124 -215 122 -219 q 156 -31 151 -128 q 151 158 161 67 q 118 -24 132 67 q 94 -208 104 -115 z "}}}
